%TF.GenerationSoftware,KiCad,Pcbnew,5.1.10-88a1d61d58~88~ubuntu20.10.1*%
%TF.CreationDate,2021-05-13T11:12:12-04:00*%
%TF.ProjectId,lick_detector,6c69636b-5f64-4657-9465-63746f722e6b,1.0*%
%TF.SameCoordinates,Original*%
%TF.FileFunction,Legend,Top*%
%TF.FilePolarity,Positive*%
%FSLAX46Y46*%
G04 Gerber Fmt 4.6, Leading zero omitted, Abs format (unit mm)*
G04 Created by KiCad (PCBNEW 5.1.10-88a1d61d58~88~ubuntu20.10.1) date 2021-05-13 11:12:12*
%MOMM*%
%LPD*%
G01*
G04 APERTURE LIST*
%ADD10C,0.063500*%
%ADD11C,0.279400*%
%ADD12C,0.177800*%
%ADD13C,0.250000*%
%ADD14C,0.150000*%
%ADD15C,1.000000*%
%ADD16R,0.600000X0.700000*%
%ADD17R,0.300000X0.570000*%
%ADD18R,0.570000X0.300000*%
%ADD19R,0.300000X0.700000*%
%ADD20R,0.300000X1.000000*%
G04 APERTURE END LIST*
D10*
X153000000Y-100493952D02*
X153000000Y-100614904D01*
X152915333Y-100360904D02*
X153000000Y-100493952D01*
X153084666Y-100360904D01*
X151915333Y-101360904D02*
X152084666Y-101614904D01*
X152084666Y-101360904D02*
X151915333Y-101614904D01*
D11*
X151500000Y-100500000D02*
X152500000Y-100500000D01*
X152000000Y-100000000D02*
X152000000Y-101000000D01*
D10*
X147170404Y-100618809D02*
X147158309Y-100643000D01*
X147134119Y-100655095D01*
X146916404Y-100655095D01*
X147170404Y-100522047D02*
X147001071Y-100522047D01*
X146916404Y-100522047D02*
X146928500Y-100534142D01*
X146940595Y-100522047D01*
X146928500Y-100509952D01*
X146916404Y-100522047D01*
X146940595Y-100522047D01*
X147158309Y-100292238D02*
X147170404Y-100316428D01*
X147170404Y-100364809D01*
X147158309Y-100389000D01*
X147146214Y-100401095D01*
X147122023Y-100413190D01*
X147049452Y-100413190D01*
X147025261Y-100401095D01*
X147013166Y-100389000D01*
X147001071Y-100364809D01*
X147001071Y-100316428D01*
X147013166Y-100292238D01*
X147170404Y-100183380D02*
X146916404Y-100183380D01*
X147073642Y-100159190D02*
X147170404Y-100086619D01*
X147001071Y-100086619D02*
X147097833Y-100183380D01*
X147194595Y-100038238D02*
X147194595Y-99844714D01*
X147170404Y-99675380D02*
X146916404Y-99675380D01*
X147158309Y-99675380D02*
X147170404Y-99699571D01*
X147170404Y-99747952D01*
X147158309Y-99772142D01*
X147146214Y-99784238D01*
X147122023Y-99796333D01*
X147049452Y-99796333D01*
X147025261Y-99784238D01*
X147013166Y-99772142D01*
X147001071Y-99747952D01*
X147001071Y-99699571D01*
X147013166Y-99675380D01*
X147158309Y-99457666D02*
X147170404Y-99481857D01*
X147170404Y-99530238D01*
X147158309Y-99554428D01*
X147134119Y-99566523D01*
X147037357Y-99566523D01*
X147013166Y-99554428D01*
X147001071Y-99530238D01*
X147001071Y-99481857D01*
X147013166Y-99457666D01*
X147037357Y-99445571D01*
X147061547Y-99445571D01*
X147085738Y-99566523D01*
X147001071Y-99373000D02*
X147001071Y-99276238D01*
X146916404Y-99336714D02*
X147134119Y-99336714D01*
X147158309Y-99324619D01*
X147170404Y-99300428D01*
X147170404Y-99276238D01*
X147158309Y-99094809D02*
X147170404Y-99119000D01*
X147170404Y-99167380D01*
X147158309Y-99191571D01*
X147134119Y-99203666D01*
X147037357Y-99203666D01*
X147013166Y-99191571D01*
X147001071Y-99167380D01*
X147001071Y-99119000D01*
X147013166Y-99094809D01*
X147037357Y-99082714D01*
X147061547Y-99082714D01*
X147085738Y-99203666D01*
X147158309Y-98865000D02*
X147170404Y-98889190D01*
X147170404Y-98937571D01*
X147158309Y-98961761D01*
X147146214Y-98973857D01*
X147122023Y-98985952D01*
X147049452Y-98985952D01*
X147025261Y-98973857D01*
X147013166Y-98961761D01*
X147001071Y-98937571D01*
X147001071Y-98889190D01*
X147013166Y-98865000D01*
X147001071Y-98792428D02*
X147001071Y-98695666D01*
X146916404Y-98756142D02*
X147134119Y-98756142D01*
X147158309Y-98744047D01*
X147170404Y-98719857D01*
X147170404Y-98695666D01*
X147170404Y-98574714D02*
X147158309Y-98598904D01*
X147146214Y-98611000D01*
X147122023Y-98623095D01*
X147049452Y-98623095D01*
X147025261Y-98611000D01*
X147013166Y-98598904D01*
X147001071Y-98574714D01*
X147001071Y-98538428D01*
X147013166Y-98514238D01*
X147025261Y-98502142D01*
X147049452Y-98490047D01*
X147122023Y-98490047D01*
X147146214Y-98502142D01*
X147158309Y-98514238D01*
X147170404Y-98538428D01*
X147170404Y-98574714D01*
X147170404Y-98381190D02*
X147001071Y-98381190D01*
X147049452Y-98381190D02*
X147025261Y-98369095D01*
X147013166Y-98357000D01*
X147001071Y-98332809D01*
X147001071Y-98308619D01*
X147360904Y-100044285D02*
X147542333Y-100044285D01*
X147578619Y-100056380D01*
X147602809Y-100080571D01*
X147614904Y-100116857D01*
X147614904Y-100141047D01*
X147614904Y-99814476D02*
X147481857Y-99814476D01*
X147457666Y-99826571D01*
X147445571Y-99850761D01*
X147445571Y-99899142D01*
X147457666Y-99923333D01*
X147602809Y-99814476D02*
X147614904Y-99838666D01*
X147614904Y-99899142D01*
X147602809Y-99923333D01*
X147578619Y-99935428D01*
X147554428Y-99935428D01*
X147530238Y-99923333D01*
X147518142Y-99899142D01*
X147518142Y-99838666D01*
X147506047Y-99814476D01*
X147445571Y-99693523D02*
X147614904Y-99693523D01*
X147469761Y-99693523D02*
X147457666Y-99681428D01*
X147445571Y-99657238D01*
X147445571Y-99620952D01*
X147457666Y-99596761D01*
X147481857Y-99584666D01*
X147614904Y-99584666D01*
X147602809Y-99366952D02*
X147614904Y-99391142D01*
X147614904Y-99439523D01*
X147602809Y-99463714D01*
X147578619Y-99475809D01*
X147481857Y-99475809D01*
X147457666Y-99463714D01*
X147445571Y-99439523D01*
X147445571Y-99391142D01*
X147457666Y-99366952D01*
X147481857Y-99354857D01*
X147506047Y-99354857D01*
X147530238Y-99475809D01*
X147614904Y-99209714D02*
X147602809Y-99233904D01*
X147578619Y-99246000D01*
X147360904Y-99246000D01*
X147614904Y-99112952D02*
X147445571Y-99112952D01*
X147360904Y-99112952D02*
X147373000Y-99125047D01*
X147385095Y-99112952D01*
X147373000Y-99100857D01*
X147360904Y-99112952D01*
X147385095Y-99112952D01*
X147614904Y-98883142D02*
X147481857Y-98883142D01*
X147457666Y-98895238D01*
X147445571Y-98919428D01*
X147445571Y-98967809D01*
X147457666Y-98992000D01*
X147602809Y-98883142D02*
X147614904Y-98907333D01*
X147614904Y-98967809D01*
X147602809Y-98992000D01*
X147578619Y-99004095D01*
X147554428Y-99004095D01*
X147530238Y-98992000D01*
X147518142Y-98967809D01*
X147518142Y-98907333D01*
X147506047Y-98883142D01*
X147805404Y-101030047D02*
X147805404Y-101005857D01*
X147817500Y-100981666D01*
X147829595Y-100969571D01*
X147853785Y-100957476D01*
X147902166Y-100945380D01*
X147962642Y-100945380D01*
X148011023Y-100957476D01*
X148035214Y-100969571D01*
X148047309Y-100981666D01*
X148059404Y-101005857D01*
X148059404Y-101030047D01*
X148047309Y-101054238D01*
X148035214Y-101066333D01*
X148011023Y-101078428D01*
X147962642Y-101090523D01*
X147902166Y-101090523D01*
X147853785Y-101078428D01*
X147829595Y-101066333D01*
X147817500Y-101054238D01*
X147805404Y-101030047D01*
X147805404Y-100715571D02*
X147805404Y-100836523D01*
X147926357Y-100848619D01*
X147914261Y-100836523D01*
X147902166Y-100812333D01*
X147902166Y-100751857D01*
X147914261Y-100727666D01*
X147926357Y-100715571D01*
X147950547Y-100703476D01*
X148011023Y-100703476D01*
X148035214Y-100715571D01*
X148047309Y-100727666D01*
X148059404Y-100751857D01*
X148059404Y-100812333D01*
X148047309Y-100836523D01*
X148035214Y-100848619D01*
X147793309Y-100413190D02*
X148119880Y-100630904D01*
X147829595Y-100340619D02*
X147817500Y-100328523D01*
X147805404Y-100304333D01*
X147805404Y-100243857D01*
X147817500Y-100219666D01*
X147829595Y-100207571D01*
X147853785Y-100195476D01*
X147877976Y-100195476D01*
X147914261Y-100207571D01*
X148059404Y-100352714D01*
X148059404Y-100195476D01*
X147805404Y-100038238D02*
X147805404Y-100014047D01*
X147817500Y-99989857D01*
X147829595Y-99977761D01*
X147853785Y-99965666D01*
X147902166Y-99953571D01*
X147962642Y-99953571D01*
X148011023Y-99965666D01*
X148035214Y-99977761D01*
X148047309Y-99989857D01*
X148059404Y-100014047D01*
X148059404Y-100038238D01*
X148047309Y-100062428D01*
X148035214Y-100074523D01*
X148011023Y-100086619D01*
X147962642Y-100098714D01*
X147902166Y-100098714D01*
X147853785Y-100086619D01*
X147829595Y-100074523D01*
X147817500Y-100062428D01*
X147805404Y-100038238D01*
X147829595Y-99856809D02*
X147817500Y-99844714D01*
X147805404Y-99820523D01*
X147805404Y-99760047D01*
X147817500Y-99735857D01*
X147829595Y-99723761D01*
X147853785Y-99711666D01*
X147877976Y-99711666D01*
X147914261Y-99723761D01*
X148059404Y-99868904D01*
X148059404Y-99711666D01*
X148059404Y-99469761D02*
X148059404Y-99614904D01*
X148059404Y-99542333D02*
X147805404Y-99542333D01*
X147841690Y-99566523D01*
X147865880Y-99590714D01*
X147877976Y-99614904D01*
X147890071Y-99191571D02*
X148059404Y-99131095D01*
X147890071Y-99070619D01*
X148047309Y-98877095D02*
X148059404Y-98901285D01*
X148059404Y-98949666D01*
X148047309Y-98973857D01*
X148023119Y-98985952D01*
X147926357Y-98985952D01*
X147902166Y-98973857D01*
X147890071Y-98949666D01*
X147890071Y-98901285D01*
X147902166Y-98877095D01*
X147926357Y-98865000D01*
X147950547Y-98865000D01*
X147974738Y-98985952D01*
X148059404Y-98756142D02*
X147890071Y-98756142D01*
X147938452Y-98756142D02*
X147914261Y-98744047D01*
X147902166Y-98731952D01*
X147890071Y-98707761D01*
X147890071Y-98683571D01*
X148059404Y-98272333D02*
X148059404Y-98417476D01*
X148059404Y-98344904D02*
X147805404Y-98344904D01*
X147841690Y-98369095D01*
X147865880Y-98393285D01*
X147877976Y-98417476D01*
X148035214Y-98163476D02*
X148047309Y-98151380D01*
X148059404Y-98163476D01*
X148047309Y-98175571D01*
X148035214Y-98163476D01*
X148059404Y-98163476D01*
X147805404Y-97994142D02*
X147805404Y-97969952D01*
X147817500Y-97945761D01*
X147829595Y-97933666D01*
X147853785Y-97921571D01*
X147902166Y-97909476D01*
X147962642Y-97909476D01*
X148011023Y-97921571D01*
X148035214Y-97933666D01*
X148047309Y-97945761D01*
X148059404Y-97969952D01*
X148059404Y-97994142D01*
X148047309Y-98018333D01*
X148035214Y-98030428D01*
X148011023Y-98042523D01*
X147962642Y-98054619D01*
X147902166Y-98054619D01*
X147853785Y-98042523D01*
X147829595Y-98030428D01*
X147817500Y-98018333D01*
X147805404Y-97994142D01*
D12*
%TO.C,C1*%
X148857000Y-100600000D02*
X148857000Y-101400000D01*
X149800000Y-100600000D02*
X149150000Y-100600000D01*
X149150000Y-100600000D02*
X149150000Y-101400000D01*
X149150000Y-101400000D02*
X149800000Y-101400000D01*
X150200000Y-100600000D02*
X150850000Y-100600000D01*
X150850000Y-100600000D02*
X150850000Y-101400000D01*
X150850000Y-101400000D02*
X150200000Y-101400000D01*
D13*
%TO.C,U1*%
X152550000Y-96800000D02*
G75*
G03*
X152550000Y-96800000I-250000J0D01*
G01*
D14*
X147375000Y-97125000D02*
X147375000Y-96600000D01*
X152625000Y-91875000D02*
X152625000Y-92400000D01*
X147375000Y-91875000D02*
X147375000Y-92400000D01*
X152625000Y-91875000D02*
X152100000Y-91875000D01*
X147375000Y-91875000D02*
X147900000Y-91875000D01*
X147375000Y-97125000D02*
X147900000Y-97125000D01*
D11*
%TO.C,P1*%
X147750000Y-103960000D02*
X152250000Y-103960000D01*
X152250000Y-103960000D02*
X152250000Y-105540000D01*
X147750000Y-103960000D02*
X147750000Y-105540000D01*
D13*
X148250000Y-104850000D02*
X148500000Y-105500000D01*
X148250000Y-104850000D02*
X148000000Y-105500000D01*
X147150000Y-101940000D02*
X147150000Y-105540000D01*
X152850000Y-101940000D02*
X152850000Y-105540000D01*
X147150000Y-105540000D02*
X152850000Y-105540000D01*
X147150000Y-101940000D02*
X152850000Y-101940000D01*
%TO.C,C1*%
D10*
X148693714Y-101042333D02*
X148705809Y-101054428D01*
X148717904Y-101090714D01*
X148717904Y-101114904D01*
X148705809Y-101151190D01*
X148681619Y-101175380D01*
X148657428Y-101187476D01*
X148609047Y-101199571D01*
X148572761Y-101199571D01*
X148524380Y-101187476D01*
X148500190Y-101175380D01*
X148476000Y-101151190D01*
X148463904Y-101114904D01*
X148463904Y-101090714D01*
X148476000Y-101054428D01*
X148488095Y-101042333D01*
X148717904Y-100800428D02*
X148717904Y-100945571D01*
X148717904Y-100873000D02*
X148463904Y-100873000D01*
X148500190Y-100897190D01*
X148524380Y-100921380D01*
X148536476Y-100945571D01*
X151257904Y-101272142D02*
X151257904Y-101417285D01*
X151257904Y-101344714D02*
X151003904Y-101344714D01*
X151040190Y-101368904D01*
X151064380Y-101393095D01*
X151076476Y-101417285D01*
X151003904Y-101114904D02*
X151003904Y-101090714D01*
X151016000Y-101066523D01*
X151028095Y-101054428D01*
X151052285Y-101042333D01*
X151100666Y-101030238D01*
X151161142Y-101030238D01*
X151209523Y-101042333D01*
X151233714Y-101054428D01*
X151245809Y-101066523D01*
X151257904Y-101090714D01*
X151257904Y-101114904D01*
X151245809Y-101139095D01*
X151233714Y-101151190D01*
X151209523Y-101163285D01*
X151161142Y-101175380D01*
X151100666Y-101175380D01*
X151052285Y-101163285D01*
X151028095Y-101151190D01*
X151016000Y-101139095D01*
X151003904Y-101114904D01*
X151088571Y-100812523D02*
X151257904Y-100812523D01*
X151088571Y-100921380D02*
X151221619Y-100921380D01*
X151245809Y-100909285D01*
X151257904Y-100885095D01*
X151257904Y-100848809D01*
X151245809Y-100824619D01*
X151233714Y-100812523D01*
X151124857Y-100606904D02*
X151124857Y-100691571D01*
X151257904Y-100691571D02*
X151003904Y-100691571D01*
X151003904Y-100570619D01*
%TO.C,U1*%
X152306476Y-97610904D02*
X152306476Y-97816523D01*
X152318571Y-97840714D01*
X152330666Y-97852809D01*
X152354857Y-97864904D01*
X152403238Y-97864904D01*
X152427428Y-97852809D01*
X152439523Y-97840714D01*
X152451619Y-97816523D01*
X152451619Y-97610904D01*
X152705619Y-97864904D02*
X152560476Y-97864904D01*
X152633047Y-97864904D02*
X152633047Y-97610904D01*
X152608857Y-97647190D01*
X152584666Y-97671380D01*
X152560476Y-97683476D01*
%TO.C,R1*%
X149225904Y-99042333D02*
X149104952Y-99127000D01*
X149225904Y-99187476D02*
X148971904Y-99187476D01*
X148971904Y-99090714D01*
X148984000Y-99066523D01*
X148996095Y-99054428D01*
X149020285Y-99042333D01*
X149056571Y-99042333D01*
X149080761Y-99054428D01*
X149092857Y-99066523D01*
X149104952Y-99090714D01*
X149104952Y-99187476D01*
X149225904Y-98800428D02*
X149225904Y-98945571D01*
X149225904Y-98873000D02*
X148971904Y-98873000D01*
X149008190Y-98897190D01*
X149032380Y-98921380D01*
X149044476Y-98945571D01*
X151003904Y-99229809D02*
X151003904Y-99374952D01*
X151003904Y-99302380D02*
X150749904Y-99302380D01*
X150786190Y-99326571D01*
X150810380Y-99350761D01*
X150822476Y-99374952D01*
X150749904Y-99072571D02*
X150749904Y-99048380D01*
X150762000Y-99024190D01*
X150774095Y-99012095D01*
X150798285Y-99000000D01*
X150846666Y-98987904D01*
X150907142Y-98987904D01*
X150955523Y-99000000D01*
X150979714Y-99012095D01*
X150991809Y-99024190D01*
X151003904Y-99048380D01*
X151003904Y-99072571D01*
X150991809Y-99096761D01*
X150979714Y-99108857D01*
X150955523Y-99120952D01*
X150907142Y-99133047D01*
X150846666Y-99133047D01*
X150798285Y-99120952D01*
X150774095Y-99108857D01*
X150762000Y-99096761D01*
X150749904Y-99072571D01*
X150979714Y-98879047D02*
X150991809Y-98866952D01*
X151003904Y-98879047D01*
X150991809Y-98891142D01*
X150979714Y-98879047D01*
X151003904Y-98879047D01*
X150749904Y-98709714D02*
X150749904Y-98685523D01*
X150762000Y-98661333D01*
X150774095Y-98649238D01*
X150798285Y-98637142D01*
X150846666Y-98625047D01*
X150907142Y-98625047D01*
X150955523Y-98637142D01*
X150979714Y-98649238D01*
X150991809Y-98661333D01*
X151003904Y-98685523D01*
X151003904Y-98709714D01*
X150991809Y-98733904D01*
X150979714Y-98746000D01*
X150955523Y-98758095D01*
X150907142Y-98770190D01*
X150846666Y-98770190D01*
X150798285Y-98758095D01*
X150774095Y-98746000D01*
X150762000Y-98733904D01*
X150749904Y-98709714D01*
%TO.C,C2*%
X149201714Y-100042333D02*
X149213809Y-100054428D01*
X149225904Y-100090714D01*
X149225904Y-100114904D01*
X149213809Y-100151190D01*
X149189619Y-100175380D01*
X149165428Y-100187476D01*
X149117047Y-100199571D01*
X149080761Y-100199571D01*
X149032380Y-100187476D01*
X149008190Y-100175380D01*
X148984000Y-100151190D01*
X148971904Y-100114904D01*
X148971904Y-100090714D01*
X148984000Y-100054428D01*
X148996095Y-100042333D01*
X148996095Y-99945571D02*
X148984000Y-99933476D01*
X148971904Y-99909285D01*
X148971904Y-99848809D01*
X148984000Y-99824619D01*
X148996095Y-99812523D01*
X149020285Y-99800428D01*
X149044476Y-99800428D01*
X149080761Y-99812523D01*
X149225904Y-99957666D01*
X149225904Y-99800428D01*
X150749904Y-100417285D02*
X150749904Y-100393095D01*
X150762000Y-100368904D01*
X150774095Y-100356809D01*
X150798285Y-100344714D01*
X150846666Y-100332619D01*
X150907142Y-100332619D01*
X150955523Y-100344714D01*
X150979714Y-100356809D01*
X150991809Y-100368904D01*
X151003904Y-100393095D01*
X151003904Y-100417285D01*
X150991809Y-100441476D01*
X150979714Y-100453571D01*
X150955523Y-100465666D01*
X150907142Y-100477761D01*
X150846666Y-100477761D01*
X150798285Y-100465666D01*
X150774095Y-100453571D01*
X150762000Y-100441476D01*
X150749904Y-100417285D01*
X150979714Y-100223761D02*
X150991809Y-100211666D01*
X151003904Y-100223761D01*
X150991809Y-100235857D01*
X150979714Y-100223761D01*
X151003904Y-100223761D01*
X151003904Y-99969761D02*
X151003904Y-100114904D01*
X151003904Y-100042333D02*
X150749904Y-100042333D01*
X150786190Y-100066523D01*
X150810380Y-100090714D01*
X150822476Y-100114904D01*
X150834571Y-99752047D02*
X151003904Y-99752047D01*
X150834571Y-99860904D02*
X150967619Y-99860904D01*
X150991809Y-99848809D01*
X151003904Y-99824619D01*
X151003904Y-99788333D01*
X150991809Y-99764142D01*
X150979714Y-99752047D01*
X150870857Y-99546428D02*
X150870857Y-99631095D01*
X151003904Y-99631095D02*
X150749904Y-99631095D01*
X150749904Y-99510142D01*
%TO.C,C3*%
X149201714Y-98042333D02*
X149213809Y-98054428D01*
X149225904Y-98090714D01*
X149225904Y-98114904D01*
X149213809Y-98151190D01*
X149189619Y-98175380D01*
X149165428Y-98187476D01*
X149117047Y-98199571D01*
X149080761Y-98199571D01*
X149032380Y-98187476D01*
X149008190Y-98175380D01*
X148984000Y-98151190D01*
X148971904Y-98114904D01*
X148971904Y-98090714D01*
X148984000Y-98054428D01*
X148996095Y-98042333D01*
X148971904Y-97957666D02*
X148971904Y-97800428D01*
X149068666Y-97885095D01*
X149068666Y-97848809D01*
X149080761Y-97824619D01*
X149092857Y-97812523D01*
X149117047Y-97800428D01*
X149177523Y-97800428D01*
X149201714Y-97812523D01*
X149213809Y-97824619D01*
X149225904Y-97848809D01*
X149225904Y-97921380D01*
X149213809Y-97945571D01*
X149201714Y-97957666D01*
X150749904Y-98417285D02*
X150749904Y-98393095D01*
X150762000Y-98368904D01*
X150774095Y-98356809D01*
X150798285Y-98344714D01*
X150846666Y-98332619D01*
X150907142Y-98332619D01*
X150955523Y-98344714D01*
X150979714Y-98356809D01*
X150991809Y-98368904D01*
X151003904Y-98393095D01*
X151003904Y-98417285D01*
X150991809Y-98441476D01*
X150979714Y-98453571D01*
X150955523Y-98465666D01*
X150907142Y-98477761D01*
X150846666Y-98477761D01*
X150798285Y-98465666D01*
X150774095Y-98453571D01*
X150762000Y-98441476D01*
X150749904Y-98417285D01*
X150979714Y-98223761D02*
X150991809Y-98211666D01*
X151003904Y-98223761D01*
X150991809Y-98235857D01*
X150979714Y-98223761D01*
X151003904Y-98223761D01*
X151003904Y-97969761D02*
X151003904Y-98114904D01*
X151003904Y-98042333D02*
X150749904Y-98042333D01*
X150786190Y-98066523D01*
X150810380Y-98090714D01*
X150822476Y-98114904D01*
X150834571Y-97752047D02*
X151003904Y-97752047D01*
X150834571Y-97860904D02*
X150967619Y-97860904D01*
X150991809Y-97848809D01*
X151003904Y-97824619D01*
X151003904Y-97788333D01*
X150991809Y-97764142D01*
X150979714Y-97752047D01*
X150870857Y-97546428D02*
X150870857Y-97631095D01*
X151003904Y-97631095D02*
X150749904Y-97631095D01*
X150749904Y-97510142D01*
%TO.C,P1*%
X152312523Y-101764904D02*
X152312523Y-101510904D01*
X152409285Y-101510904D01*
X152433476Y-101523000D01*
X152445571Y-101535095D01*
X152457666Y-101559285D01*
X152457666Y-101595571D01*
X152445571Y-101619761D01*
X152433476Y-101631857D01*
X152409285Y-101643952D01*
X152312523Y-101643952D01*
X152699571Y-101764904D02*
X152554428Y-101764904D01*
X152627000Y-101764904D02*
X152627000Y-101510904D01*
X152602809Y-101547190D01*
X152578619Y-101571380D01*
X152554428Y-101583476D01*
%TD*%
%LPC*%
D15*
%TO.C,FID1*%
X152000000Y-99000000D03*
%TD*%
D16*
%TO.C,C1*%
X150500000Y-101000000D03*
X149500000Y-101000000D03*
%TD*%
%TO.C,U1*%
G36*
G01*
X151800000Y-92880000D02*
X151800000Y-96120000D01*
G75*
G02*
X151620000Y-96300000I-180000J0D01*
G01*
X148380000Y-96300000D01*
G75*
G02*
X148200000Y-96120000I0J180000D01*
G01*
X148200000Y-92880000D01*
G75*
G02*
X148380000Y-92700000I180000J0D01*
G01*
X151620000Y-92700000D01*
G75*
G02*
X151800000Y-92880000I0J-180000D01*
G01*
G37*
D17*
X151750000Y-96885000D03*
X151250000Y-96885000D03*
X150750000Y-96885000D03*
X150250000Y-96885000D03*
X149750000Y-96885000D03*
X149250000Y-96885000D03*
X148750000Y-96885000D03*
X148250000Y-96885000D03*
D18*
X147615000Y-96250000D03*
X147615000Y-95750000D03*
X147615000Y-95250000D03*
X147615000Y-94750000D03*
X147615000Y-94250000D03*
X147615000Y-93750000D03*
X147615000Y-93250000D03*
X147615000Y-92750000D03*
D17*
X148250000Y-92115000D03*
X148750000Y-92115000D03*
X149250000Y-92115000D03*
X149750000Y-92115000D03*
X150250000Y-92115000D03*
X150750000Y-92115000D03*
X151250000Y-92115000D03*
X151750000Y-92115000D03*
D18*
X152385000Y-92750000D03*
X152385000Y-93250000D03*
X152385000Y-93750000D03*
X152385000Y-94250000D03*
X152385000Y-94750000D03*
X152385000Y-95250000D03*
X152385000Y-95750000D03*
X152385000Y-96250000D03*
%TD*%
%TO.C,R1*%
G36*
G01*
X150090000Y-99100000D02*
X150090000Y-98900000D01*
G75*
G02*
X150190000Y-98800000I100000J0D01*
G01*
X150450000Y-98800000D01*
G75*
G02*
X150550000Y-98900000I0J-100000D01*
G01*
X150550000Y-99100000D01*
G75*
G02*
X150450000Y-99200000I-100000J0D01*
G01*
X150190000Y-99200000D01*
G75*
G02*
X150090000Y-99100000I0J100000D01*
G01*
G37*
G36*
G01*
X149450000Y-99100000D02*
X149450000Y-98900000D01*
G75*
G02*
X149550000Y-98800000I100000J0D01*
G01*
X149810000Y-98800000D01*
G75*
G02*
X149910000Y-98900000I0J-100000D01*
G01*
X149910000Y-99100000D01*
G75*
G02*
X149810000Y-99200000I-100000J0D01*
G01*
X149550000Y-99200000D01*
G75*
G02*
X149450000Y-99100000I0J100000D01*
G01*
G37*
%TD*%
%TO.C,C2*%
G36*
G01*
X150090000Y-100100000D02*
X150090000Y-99900000D01*
G75*
G02*
X150190000Y-99800000I100000J0D01*
G01*
X150450000Y-99800000D01*
G75*
G02*
X150550000Y-99900000I0J-100000D01*
G01*
X150550000Y-100100000D01*
G75*
G02*
X150450000Y-100200000I-100000J0D01*
G01*
X150190000Y-100200000D01*
G75*
G02*
X150090000Y-100100000I0J100000D01*
G01*
G37*
G36*
G01*
X149450000Y-100100000D02*
X149450000Y-99900000D01*
G75*
G02*
X149550000Y-99800000I100000J0D01*
G01*
X149810000Y-99800000D01*
G75*
G02*
X149910000Y-99900000I0J-100000D01*
G01*
X149910000Y-100100000D01*
G75*
G02*
X149810000Y-100200000I-100000J0D01*
G01*
X149550000Y-100200000D01*
G75*
G02*
X149450000Y-100100000I0J100000D01*
G01*
G37*
%TD*%
%TO.C,C3*%
G36*
G01*
X150090000Y-98100000D02*
X150090000Y-97900000D01*
G75*
G02*
X150190000Y-97800000I100000J0D01*
G01*
X150450000Y-97800000D01*
G75*
G02*
X150550000Y-97900000I0J-100000D01*
G01*
X150550000Y-98100000D01*
G75*
G02*
X150450000Y-98200000I-100000J0D01*
G01*
X150190000Y-98200000D01*
G75*
G02*
X150090000Y-98100000I0J100000D01*
G01*
G37*
G36*
G01*
X149450000Y-98100000D02*
X149450000Y-97900000D01*
G75*
G02*
X149550000Y-97800000I100000J0D01*
G01*
X149810000Y-97800000D01*
G75*
G02*
X149910000Y-97900000I0J-100000D01*
G01*
X149910000Y-98100000D01*
G75*
G02*
X149810000Y-98200000I-100000J0D01*
G01*
X149550000Y-98200000D01*
G75*
G02*
X149450000Y-98100000I0J100000D01*
G01*
G37*
%TD*%
D19*
%TO.C,P1*%
X151750000Y-102250000D03*
X151250000Y-102250000D03*
X150750000Y-102250000D03*
X150250000Y-102250000D03*
X149750000Y-102250000D03*
X149250000Y-102250000D03*
X148750000Y-102250000D03*
X148250000Y-102250000D03*
D20*
X152540000Y-104900000D03*
X147460000Y-104900000D03*
%TD*%
M02*
