%TF.GenerationSoftware,KiCad,Pcbnew,5.1.10-88a1d61d58~88~ubuntu20.10.1*%
%TF.CreationDate,2021-05-13T11:12:12-04:00*%
%TF.ProjectId,lick_detector,6c69636b-5f64-4657-9465-63746f722e6b,1.0*%
%TF.SameCoordinates,Original*%
%TF.FileFunction,Paste,Top*%
%TF.FilePolarity,Positive*%
%FSLAX46Y46*%
G04 Gerber Fmt 4.6, Leading zero omitted, Abs format (unit mm)*
G04 Created by KiCad (PCBNEW 5.1.10-88a1d61d58~88~ubuntu20.10.1) date 2021-05-13 11:12:12*
%MOMM*%
%LPD*%
G01*
G04 APERTURE LIST*
%ADD10R,0.600000X0.700000*%
%ADD11R,1.300000X1.300000*%
%ADD12R,0.300000X0.570000*%
%ADD13R,0.570000X0.300000*%
%ADD14R,0.300000X0.700000*%
%ADD15R,0.300000X1.000000*%
G04 APERTURE END LIST*
D10*
%TO.C,C1*%
X150500000Y-101000000D03*
X149500000Y-101000000D03*
%TD*%
D11*
%TO.C,U1*%
X150800000Y-93700000D03*
X149200000Y-95300000D03*
X150800000Y-95300000D03*
X149200000Y-93700000D03*
D12*
X151750000Y-96885000D03*
X151250000Y-96885000D03*
X150750000Y-96885000D03*
X150250000Y-96885000D03*
X149750000Y-96885000D03*
X149250000Y-96885000D03*
X148750000Y-96885000D03*
X148250000Y-96885000D03*
D13*
X147615000Y-96250000D03*
X147615000Y-95750000D03*
X147615000Y-95250000D03*
X147615000Y-94750000D03*
X147615000Y-94250000D03*
X147615000Y-93750000D03*
X147615000Y-93250000D03*
X147615000Y-92750000D03*
D12*
X148250000Y-92115000D03*
X148750000Y-92115000D03*
X149250000Y-92115000D03*
X149750000Y-92115000D03*
X150250000Y-92115000D03*
X150750000Y-92115000D03*
X151250000Y-92115000D03*
X151750000Y-92115000D03*
D13*
X152385000Y-92750000D03*
X152385000Y-93250000D03*
X152385000Y-93750000D03*
X152385000Y-94250000D03*
X152385000Y-94750000D03*
X152385000Y-95250000D03*
X152385000Y-95750000D03*
X152385000Y-96250000D03*
%TD*%
%TO.C,R1*%
G36*
G01*
X150186000Y-99100500D02*
X150186000Y-98899500D01*
G75*
G02*
X150265500Y-98820000I79500J0D01*
G01*
X150424500Y-98820000D01*
G75*
G02*
X150504000Y-98899500I0J-79500D01*
G01*
X150504000Y-99100500D01*
G75*
G02*
X150424500Y-99180000I-79500J0D01*
G01*
X150265500Y-99180000D01*
G75*
G02*
X150186000Y-99100500I0J79500D01*
G01*
G37*
G36*
G01*
X149496000Y-99100500D02*
X149496000Y-98899500D01*
G75*
G02*
X149575500Y-98820000I79500J0D01*
G01*
X149734500Y-98820000D01*
G75*
G02*
X149814000Y-98899500I0J-79500D01*
G01*
X149814000Y-99100500D01*
G75*
G02*
X149734500Y-99180000I-79500J0D01*
G01*
X149575500Y-99180000D01*
G75*
G02*
X149496000Y-99100500I0J79500D01*
G01*
G37*
%TD*%
%TO.C,C2*%
G36*
G01*
X150186000Y-100100500D02*
X150186000Y-99899500D01*
G75*
G02*
X150265500Y-99820000I79500J0D01*
G01*
X150424500Y-99820000D01*
G75*
G02*
X150504000Y-99899500I0J-79500D01*
G01*
X150504000Y-100100500D01*
G75*
G02*
X150424500Y-100180000I-79500J0D01*
G01*
X150265500Y-100180000D01*
G75*
G02*
X150186000Y-100100500I0J79500D01*
G01*
G37*
G36*
G01*
X149496000Y-100100500D02*
X149496000Y-99899500D01*
G75*
G02*
X149575500Y-99820000I79500J0D01*
G01*
X149734500Y-99820000D01*
G75*
G02*
X149814000Y-99899500I0J-79500D01*
G01*
X149814000Y-100100500D01*
G75*
G02*
X149734500Y-100180000I-79500J0D01*
G01*
X149575500Y-100180000D01*
G75*
G02*
X149496000Y-100100500I0J79500D01*
G01*
G37*
%TD*%
%TO.C,C3*%
G36*
G01*
X150186000Y-98100500D02*
X150186000Y-97899500D01*
G75*
G02*
X150265500Y-97820000I79500J0D01*
G01*
X150424500Y-97820000D01*
G75*
G02*
X150504000Y-97899500I0J-79500D01*
G01*
X150504000Y-98100500D01*
G75*
G02*
X150424500Y-98180000I-79500J0D01*
G01*
X150265500Y-98180000D01*
G75*
G02*
X150186000Y-98100500I0J79500D01*
G01*
G37*
G36*
G01*
X149496000Y-98100500D02*
X149496000Y-97899500D01*
G75*
G02*
X149575500Y-97820000I79500J0D01*
G01*
X149734500Y-97820000D01*
G75*
G02*
X149814000Y-97899500I0J-79500D01*
G01*
X149814000Y-98100500D01*
G75*
G02*
X149734500Y-98180000I-79500J0D01*
G01*
X149575500Y-98180000D01*
G75*
G02*
X149496000Y-98100500I0J79500D01*
G01*
G37*
%TD*%
D14*
%TO.C,P1*%
X151750000Y-102250000D03*
X151250000Y-102250000D03*
X150750000Y-102250000D03*
X150250000Y-102250000D03*
X149750000Y-102250000D03*
X149250000Y-102250000D03*
X148750000Y-102250000D03*
X148250000Y-102250000D03*
D15*
X152540000Y-104900000D03*
X147460000Y-104900000D03*
%TD*%
M02*
