%FSLAX45Y45*%
G04 Gerber Fmt 4.5, Leading zero omitted, Abs format (unit mm)*
G04 Created by KiCad (PCBNEW 5.1.10-88a1d61d58~88~ubuntu20.10.1) date 2021-05-13 11:12:44*
%MOMM*%
%LPD*%
G01*
G04 APERTURE LIST*
%TA.AperFunction,Profile*%
%ADD10C,0.050000*%
%TD*%
%ADD11C,0.200000*%
%ADD12C,0.300000*%
G04 APERTURE END LIST*
D10*
X14650000Y-10600000D02*
X14650000Y-9150000D01*
X15350000Y-10600000D02*
X14650000Y-10600000D01*
X15350000Y-9150000D02*
X15350000Y-10600000D01*
X14650000Y-9150000D02*
X15350000Y-9150000D01*
D11*
D12*
X14933928Y-11068214D02*
X14933928Y-10768214D01*
X15005357Y-10768214D01*
X15048214Y-10782500D01*
X15076786Y-10811072D01*
X15091071Y-10839643D01*
X15105357Y-10896786D01*
X15105357Y-10939643D01*
X15091071Y-10996786D01*
X15076786Y-11025357D01*
X15048214Y-11053929D01*
X15005357Y-11068214D01*
X14933928Y-11068214D01*
X15233928Y-11068214D02*
X15233928Y-10868214D01*
X15233928Y-10925357D02*
X15248214Y-10896786D01*
X15262500Y-10882500D01*
X15291071Y-10868214D01*
X15319643Y-10868214D01*
X15419643Y-11068214D02*
X15419643Y-10868214D01*
X15419643Y-10768214D02*
X15405357Y-10782500D01*
X15419643Y-10796786D01*
X15433928Y-10782500D01*
X15419643Y-10768214D01*
X15419643Y-10796786D01*
X15605357Y-11068214D02*
X15576786Y-11053929D01*
X15562500Y-11025357D01*
X15562500Y-10768214D01*
X15762500Y-11068214D02*
X15733928Y-11053929D01*
X15719643Y-11025357D01*
X15719643Y-10768214D01*
X16105357Y-11068214D02*
X16105357Y-10768214D01*
X16205357Y-10982500D01*
X16305357Y-10768214D01*
X16305357Y-11068214D01*
X16576786Y-11068214D02*
X16576786Y-10911072D01*
X16562500Y-10882500D01*
X16533928Y-10868214D01*
X16476786Y-10868214D01*
X16448214Y-10882500D01*
X16576786Y-11053929D02*
X16548214Y-11068214D01*
X16476786Y-11068214D01*
X16448214Y-11053929D01*
X16433928Y-11025357D01*
X16433928Y-10996786D01*
X16448214Y-10968214D01*
X16476786Y-10953929D01*
X16548214Y-10953929D01*
X16576786Y-10939643D01*
X16719643Y-10868214D02*
X16719643Y-11168214D01*
X16719643Y-10882500D02*
X16748214Y-10868214D01*
X16805357Y-10868214D01*
X16833928Y-10882500D01*
X16848214Y-10896786D01*
X16862500Y-10925357D01*
X16862500Y-11011072D01*
X16848214Y-11039643D01*
X16833928Y-11053929D01*
X16805357Y-11068214D01*
X16748214Y-11068214D01*
X16719643Y-11053929D01*
X16991071Y-11039643D02*
X17005357Y-11053929D01*
X16991071Y-11068214D01*
X16976786Y-11053929D01*
X16991071Y-11039643D01*
X16991071Y-11068214D01*
X16991071Y-10882500D02*
X17005357Y-10896786D01*
X16991071Y-10911072D01*
X16976786Y-10896786D01*
X16991071Y-10882500D01*
X16991071Y-10911072D01*
M02*
