<?xml version="1.0" standalone="no"?>
 <!DOCTYPE svg PUBLIC "-//W3C//DTD SVG 1.1//EN" 
 "http://www.w3.org/Graphics/SVG/1.1/DTD/svg11.dtd"> 
<svg
  xmlns:svg="http://www.w3.org/2000/svg"
  xmlns="http://www.w3.org/2000/svg"
  xmlns:xlink="http://www.w3.org/1999/xlink"
  version="1.1"
  width="1.247140cm" height="1.846580cm" viewBox="0 0 4910 7270">
<title>SVG Picture created as lick_detector-F_SilkS.svg date 2021/05/13 11:13:37 </title>
  <desc>Picture generated by PCBNEW </desc>
<g style="fill:#000000; fill-opacity:1;stroke:#000000; stroke-opacity:1;
stroke-linecap:round; stroke-linejoin:round;"
 transform="translate(0 0) scale(1 1)">
</g>
<g style="fill:#000000; fill-opacity:0.0; 
stroke:#000000; stroke-width:-0.000393701; stroke-opacity:1; 
stroke-linecap:round; stroke-linejoin:round;">
</g>
<g style="fill:#008484; fill-opacity:0.0; 
stroke:#008484; stroke-width:-0.000393701; stroke-opacity:1; 
stroke-linecap:round; stroke-linejoin:round;">
</g>
<g style="fill:#008484; fill-opacity:0.0; 
stroke:#008484; stroke-width:25; stroke-opacity:1; 
stroke-linecap:round; stroke-linejoin:round;">
<text x="3637.53" y="4967.7"
textLength="203.824" font-size="133.333" lengthAdjust="spacingAndGlyphs"
text-anchor="middle" opacity="0">Y</text>
<path d="M3637 4915
L3637 4962
" />
<path d="M3604 4862
L3637 4915
L3670 4862
" />
<text x="3243.83" y="5361.41"
textLength="127.738" font-size="133.333" lengthAdjust="spacingAndGlyphs"
text-anchor="middle" opacity="0">X</text>
<path d="M3210 5256
L3277 5356
" />
<path d="M3277 5256
L3210 5356
" />
</g>
<g style="fill:#008484; fill-opacity:0.0; 
stroke:#008484; stroke-width:110; stroke-opacity:1; 
stroke-linecap:round; stroke-linejoin:round;">
<path d="M3046 4917
L3440 4917
" />
<path d="M3243 4720
L3243 5114
" />
</g>
<g style="fill:#008484; fill-opacity:0.0; 
stroke:#008484; stroke-width:25; stroke-opacity:1; 
stroke-linecap:round; stroke-linejoin:round;">
<g transform="rotate(-90 1297.18 4524)">
<text x="1297.18" y="4574"
textLength="989.643" font-size="133.333" lengthAdjust="spacingAndGlyphs"
text-anchor="middle" opacity="0">lick_detector</text>
</g>
<path d="M1342 4964
L1337 4974
L1328 4978
L1242 4978
" />
<path d="M1342 4926
L1275 4926
" />
<path d="M1242 4926
L1247 4931
L1251 4926
L1247 4921
L1242 4926
L1251 4926
" />
<path d="M1337 4835
L1342 4845
L1342 4864
L1337 4874
L1332 4878
L1323 4883
L1294 4883
L1285 4878
L1280 4874
L1275 4864
L1275 4845
L1280 4835
" />
<path d="M1342 4793
L1242 4793
" />
<path d="M1304 4783
L1342 4754
" />
<path d="M1275 4754
L1313 4793
" />
<path d="M1351 4735
L1351 4659
" />
<path d="M1342 4593
L1242 4593
" />
<path d="M1337 4593
L1342 4602
L1342 4621
L1337 4631
L1332 4635
L1323 4640
L1294 4640
L1285 4635
L1280 4631
L1275 4621
L1275 4602
L1280 4593
" />
<path d="M1337 4507
L1342 4516
L1342 4535
L1337 4545
L1328 4550
L1290 4550
L1280 4545
L1275 4535
L1275 4516
L1280 4507
L1290 4502
L1299 4502
L1309 4550
" />
<path d="M1275 4474
L1275 4435
" />
<path d="M1242 4459
L1328 4459
L1337 4454
L1342 4445
L1342 4435
" />
<path d="M1337 4364
L1342 4374
L1342 4393
L1337 4402
L1328 4407
L1290 4407
L1280 4402
L1275 4393
L1275 4374
L1280 4364
L1290 4359
L1299 4359
L1309 4407
" />
<path d="M1337 4274
L1342 4283
L1342 4302
L1337 4312
L1332 4316
L1323 4321
L1294 4321
L1285 4316
L1280 4312
L1275 4302
L1275 4283
L1280 4274
" />
<path d="M1275 4245
L1275 4207
" />
<path d="M1242 4231
L1328 4231
L1337 4226
L1342 4216
L1342 4207
" />
<path d="M1342 4159
L1337 4169
L1332 4174
L1323 4178
L1294 4178
L1285 4174
L1280 4169
L1275 4159
L1275 4145
L1280 4135
L1285 4131
L1294 4126
L1323 4126
L1332 4131
L1337 4135
L1342 4145
L1342 4159
" />
<path d="M1342 4083
L1275 4083
" />
<path d="M1294 4083
L1285 4078
L1280 4074
L1275 4064
L1275 4054
" />
<g transform="rotate(-90 1472.18 4524)">
<text x="1472.18" y="4574"
textLength="565.833" font-size="133.333" lengthAdjust="spacingAndGlyphs"
text-anchor="middle" opacity="0">Janelia</text>
</g>
<path d="M1417 4738
L1488 4738
L1503 4743
L1512 4752
L1517 4766
L1517 4776
" />
<path d="M1517 4647
L1465 4647
L1455 4652
L1450 4662
L1450 4681
L1455 4690
" />
<path d="M1512 4647
L1517 4657
L1517 4681
L1512 4690
L1503 4695
L1493 4695
L1484 4690
L1479 4681
L1479 4657
L1474 4647
" />
<path d="M1450 4600
L1517 4600
" />
<path d="M1460 4600
L1455 4595
L1450 4585
L1450 4571
L1455 4562
L1465 4557
L1517 4557
" />
<path d="M1512 4471
L1517 4481
L1517 4500
L1512 4509
L1503 4514
L1465 4514
L1455 4509
L1450 4500
L1450 4481
L1455 4471
L1465 4466
L1474 4466
L1484 4514
" />
<path d="M1517 4409
L1512 4419
L1503 4424
L1417 4424
" />
<path d="M1517 4371
L1450 4371
" />
<path d="M1417 4371
L1422 4376
L1426 4371
L1422 4366
L1417 4371
L1426 4371
" />
<path d="M1517 4281
L1465 4281
L1455 4285
L1450 4295
L1450 4314
L1455 4324
" />
<path d="M1512 4281
L1517 4290
L1517 4314
L1512 4324
L1503 4328
L1493 4328
L1484 4324
L1479 4314
L1479 4290
L1474 4281
" />
<g transform="rotate(-90 1647.18 4524)">
<text x="1647.18" y="4574"
textLength="1322.98" font-size="133.333" lengthAdjust="spacingAndGlyphs"
text-anchor="middle" opacity="0">05/2021 ver 1.0</text>
</g>
<path d="M1592 5126
L1592 5116
L1597 5107
L1601 5102
L1611 5097
L1630 5093
L1654 5093
L1673 5097
L1682 5102
L1687 5107
L1692 5116
L1692 5126
L1687 5135
L1682 5140
L1673 5145
L1654 5150
L1630 5150
L1611 5145
L1601 5140
L1597 5135
L1592 5126
" />
<path d="M1592 5002
L1592 5050
L1640 5054
L1635 5050
L1630 5040
L1630 5016
L1635 5007
L1640 5002
L1649 4997
L1673 4997
L1682 5002
L1687 5007
L1692 5016
L1692 5040
L1687 5050
L1682 5054
" />
<path d="M1587 4883
L1716 4969
" />
<path d="M1601 4854
L1597 4850
L1592 4840
L1592 4816
L1597 4807
L1601 4802
L1611 4797
L1620 4797
L1635 4802
L1692 4859
L1692 4797
" />
<path d="M1592 4735
L1592 4726
L1597 4716
L1601 4712
L1611 4707
L1630 4702
L1654 4702
L1673 4707
L1682 4712
L1687 4716
L1692 4726
L1692 4735
L1687 4745
L1682 4750
L1673 4754
L1654 4759
L1630 4759
L1611 4754
L1601 4750
L1597 4745
L1592 4735
" />
<path d="M1601 4664
L1597 4659
L1592 4650
L1592 4626
L1597 4616
L1601 4612
L1611 4607
L1620 4607
L1635 4612
L1692 4669
L1692 4607
" />
<path d="M1692 4512
L1692 4569
" />
<path d="M1692 4540
L1592 4540
L1606 4550
L1616 4559
L1620 4569
" />
<path d="M1625 4402
L1692 4378
L1625 4354
" />
<path d="M1687 4278
L1692 4288
L1692 4307
L1687 4316
L1678 4321
L1640 4321
L1630 4316
L1625 4307
L1625 4288
L1630 4278
L1640 4274
L1649 4274
L1659 4321
" />
<path d="M1692 4231
L1625 4231
" />
<path d="M1644 4231
L1635 4226
L1630 4221
L1625 4212
L1625 4202
" />
<path d="M1692 4040
L1692 4097
" />
<path d="M1692 4069
L1592 4069
L1606 4078
L1616 4088
L1620 4097
" />
<path d="M1682 3997
L1687 3993
L1692 3997
L1687 4002
L1682 3997
L1692 3997
" />
<path d="M1592 3931
L1592 3921
L1597 3912
L1601 3907
L1611 3902
L1630 3897
L1654 3897
L1673 3902
L1682 3907
L1687 3912
L1692 3921
L1692 3931
L1687 3940
L1682 3945
L1673 3950
L1654 3954
L1630 3954
L1611 3950
L1601 3945
L1597 3940
L1592 3931
" />
</g>
<g style="fill:#008484; fill-opacity:0.0; 
stroke:#008484; stroke-width:70; stroke-opacity:1; 
stroke-linecap:round; stroke-linejoin:round;">
<path d="M2006 4957
L2006 5272
" />
<path d="M2377 4957
L2121 4957
" />
<path d="M2121 4957
L2121 5272
" />
<path d="M2121 5272
L2377 5272
" />
<path d="M2535 4957
L2791 4957
" />
<path d="M2791 4957
L2791 5272
" />
<path d="M2791 5272
L2535 5272
" />
</g>
<g style="fill:#008484; fill-opacity:0.0; 
stroke:#008484; stroke-width:98.4252; stroke-opacity:1; 
stroke-linecap:round; stroke-linejoin:round;">
<circle cx="3361.94" cy="3461.01" r="98.4252" /> 
</g>
<g style="fill:#008484; fill-opacity:0.0; 
stroke:#008484; stroke-width:59.0551; stroke-opacity:1; 
stroke-linecap:round; stroke-linejoin:round;">
<path d="M1422 3588
L1422 3382
" />
<path d="M3489 1522
L3489 1728
" />
<path d="M1422 1522
L1422 1728
" />
<path d="M3489 1522
L3283 1522
" />
<path d="M1422 1522
L1629 1522
" />
<path d="M1422 3588
L1629 3588
" />
</g>
<g style="fill:#008484; fill-opacity:0.0; 
stroke:#008484; stroke-width:110; stroke-opacity:1; 
stroke-linecap:round; stroke-linejoin:round;">
<path d="M1570 6279
L3342 6279
" />
<path d="M3342 6279
L3342 6901
" />
<path d="M1570 6279
L1570 6901
" />
</g>
<g style="fill:#008484; fill-opacity:0.0; 
stroke:#008484; stroke-width:98.4252; stroke-opacity:1; 
stroke-linecap:round; stroke-linejoin:round;">
<path d="M1767 6630
L1865 6886
" />
<path d="M1767 6630
L1669 6886
" />
<path d="M1334 5484
L1334 6901
" />
<path d="M3578 5484
L3578 6901
" />
<path d="M1334 6901
L3578 6901
" />
<path d="M1334 5484
L3578 5484
" />
</g>
<g style="fill:#008484; fill-opacity:0.0; 
stroke:#008484; stroke-width:25; stroke-opacity:1; 
stroke-linecap:round; stroke-linejoin:round;">
<g transform="rotate(-90 1906.43 5114.56)">
<text x="1906.43" y="5164.56"
textLength="227.738" font-size="133.333" lengthAdjust="spacingAndGlyphs"
text-anchor="middle" opacity="0">C1</text>
</g>
<path d="M1942 5131
L1946 5135
L1951 5150
L1951 5159
L1946 5174
L1937 5183
L1927 5188
L1908 5193
L1894 5193
L1875 5188
L1865 5183
L1856 5174
L1851 5159
L1851 5150
L1856 5135
L1861 5131
" />
<path d="M1951 5035
L1951 5093
" />
<path d="M1951 5064
L1851 5064
L1865 5074
L1875 5083
L1880 5093
" />
<g transform="rotate(-90 2906.43 5114.56)">
<text x="2906.43" y="5164.56"
textLength="399.167" font-size="133.333" lengthAdjust="spacingAndGlyphs"
text-anchor="middle" opacity="0">10uF</text>
</g>
<path d="M2951 5221
L2951 5278
" />
<path d="M2951 5250
L2851 5250
L2865 5259
L2875 5269
L2880 5278
" />
<path d="M2851 5159
L2851 5150
L2856 5140
L2861 5135
L2870 5131
L2889 5126
L2913 5126
L2932 5131
L2942 5135
L2946 5140
L2951 5150
L2951 5159
L2946 5169
L2942 5174
L2932 5178
L2913 5183
L2889 5183
L2870 5178
L2861 5174
L2856 5169
L2851 5159
" />
<path d="M2884 5040
L2951 5040
" />
<path d="M2884 5083
L2937 5083
L2946 5078
L2951 5069
L2951 5055
L2946 5045
L2942 5040
" />
<path d="M2899 4959
L2899 4993
" />
<path d="M2951 4993
L2851 4993
L2851 4945
" />
<text x="3440.68" y="3885.03"
textLength="232.5" font-size="133.333" lengthAdjust="spacingAndGlyphs"
text-anchor="middle" opacity="0">U1</text>
<path d="M3364 3780
L3364 3861
L3369 3870
L3374 3875
L3383 3880
L3402 3880
L3412 3875
L3416 3870
L3421 3861
L3421 3780
" />
<path d="M3521 3880
L3464 3880
" />
<path d="M3493 3880
L3493 3780
L3483 3794
L3474 3804
L3464 3808
" />
<g transform="rotate(-90 2106.43 4327.15)">
<text x="2106.43" y="4377.15"
textLength="227.738" font-size="133.333" lengthAdjust="spacingAndGlyphs"
text-anchor="middle" opacity="0">R1</text>
</g>
<path d="M2151 4343
L2104 4377
" />
<path d="M2151 4400
L2051 4400
L2051 4362
L2056 4353
L2061 4348
L2070 4343
L2084 4343
L2094 4348
L2099 4353
L2104 4362
L2104 4400
" />
<path d="M2151 4248
L2151 4305
" />
<path d="M2151 4277
L2051 4277
L2065 4286
L2075 4296
L2080 4305
" />
<g transform="rotate(-90 2806.43 4327.15)">
<text x="2806.43" y="4377.15"
textLength="365.833" font-size="133.333" lengthAdjust="spacingAndGlyphs"
text-anchor="middle" opacity="0">10.0</text>
</g>
<path d="M2851 4417
L2851 4474
" />
<path d="M2851 4446
L2751 4446
L2765 4455
L2775 4465
L2780 4474
" />
<path d="M2751 4355
L2751 4346
L2756 4336
L2761 4331
L2770 4327
L2789 4322
L2813 4322
L2832 4327
L2842 4331
L2846 4336
L2851 4346
L2851 4355
L2846 4365
L2842 4370
L2832 4374
L2813 4379
L2789 4379
L2770 4374
L2761 4370
L2756 4365
L2751 4355
" />
<path d="M2842 4279
L2846 4274
L2851 4279
L2846 4284
L2842 4279
L2851 4279
" />
<path d="M2751 4212
L2751 4203
L2756 4193
L2761 4189
L2770 4184
L2789 4179
L2813 4179
L2832 4184
L2842 4189
L2846 4193
L2851 4203
L2851 4212
L2846 4222
L2842 4227
L2832 4231
L2813 4236
L2789 4236
L2770 4231
L2761 4227
L2756 4222
L2751 4212
" />
<g transform="rotate(-90 2106.43 4720.85)">
<text x="2106.43" y="4770.85"
textLength="227.738" font-size="133.333" lengthAdjust="spacingAndGlyphs"
text-anchor="middle" opacity="0">C2</text>
</g>
<path d="M2142 4737
L2146 4742
L2151 4756
L2151 4766
L2146 4780
L2137 4789
L2127 4794
L2108 4799
L2094 4799
L2075 4794
L2065 4789
L2056 4780
L2051 4766
L2051 4756
L2056 4742
L2061 4737
" />
<path d="M2061 4699
L2056 4694
L2051 4685
L2051 4661
L2056 4651
L2061 4647
L2070 4642
L2080 4642
L2094 4647
L2151 4704
L2151 4642
" />
<g transform="rotate(-90 2806.43 4720.85)">
<text x="2806.43" y="4770.85"
textLength="446.786" font-size="133.333" lengthAdjust="spacingAndGlyphs"
text-anchor="middle" opacity="0">0.1uF</text>
</g>
<path d="M2751 4885
L2751 4875
L2756 4866
L2761 4861
L2770 4856
L2789 4851
L2813 4851
L2832 4856
L2842 4861
L2846 4866
L2851 4875
L2851 4885
L2846 4894
L2842 4899
L2832 4904
L2813 4908
L2789 4908
L2770 4904
L2761 4899
L2756 4894
L2751 4885
" />
<path d="M2842 4808
L2846 4804
L2851 4808
L2846 4813
L2842 4808
L2851 4808
" />
<path d="M2851 4708
L2851 4766
" />
<path d="M2851 4737
L2751 4737
L2765 4747
L2775 4756
L2780 4766
" />
<path d="M2784 4623
L2851 4623
" />
<path d="M2784 4666
L2837 4666
L2846 4661
L2851 4651
L2851 4637
L2846 4627
L2842 4623
" />
<path d="M2799 4542
L2799 4575
" />
<path d="M2851 4575
L2751 4575
L2751 4527
" />
<g transform="rotate(-90 2106.43 3933.45)">
<text x="2106.43" y="3983.45"
textLength="227.738" font-size="133.333" lengthAdjust="spacingAndGlyphs"
text-anchor="middle" opacity="0">C3</text>
</g>
<path d="M2142 3950
L2146 3954
L2151 3969
L2151 3978
L2146 3992
L2137 4002
L2127 4007
L2108 4012
L2094 4012
L2075 4007
L2065 4002
L2056 3992
L2051 3978
L2051 3969
L2056 3954
L2061 3950
" />
<path d="M2051 3916
L2051 3854
L2089 3888
L2089 3873
L2094 3864
L2099 3859
L2108 3854
L2132 3854
L2142 3859
L2146 3864
L2151 3873
L2151 3902
L2146 3912
L2142 3916
" />
<g transform="rotate(-90 2806.43 3933.45)">
<text x="2806.43" y="3983.45"
textLength="446.786" font-size="133.333" lengthAdjust="spacingAndGlyphs"
text-anchor="middle" opacity="0">0.1uF</text>
</g>
<path d="M2751 4097
L2751 4088
L2756 4078
L2761 4073
L2770 4069
L2789 4064
L2813 4064
L2832 4069
L2842 4073
L2846 4078
L2851 4088
L2851 4097
L2846 4107
L2842 4112
L2832 4116
L2813 4121
L2789 4121
L2770 4116
L2761 4112
L2756 4107
L2751 4097
" />
<path d="M2842 4021
L2846 4016
L2851 4021
L2846 4026
L2842 4021
L2851 4021
" />
<path d="M2851 3921
L2851 3978
" />
<path d="M2851 3950
L2751 3950
L2765 3959
L2775 3969
L2780 3978
" />
<path d="M2784 3835
L2851 3835
" />
<path d="M2784 3878
L2837 3878
L2846 3873
L2851 3864
L2851 3850
L2846 3840
L2842 3835
" />
<path d="M2799 3754
L2799 3788
" />
<path d="M2851 3788
L2751 3788
L2751 3740
" />
<text x="3440.68" y="5420.46"
textLength="227.738" font-size="133.333" lengthAdjust="spacingAndGlyphs"
text-anchor="middle" opacity="0">P1</text>
<path d="M3366 5415
L3366 5315
L3404 5315
L3414 5320
L3419 5325
L3424 5334
L3424 5349
L3419 5358
L3414 5363
L3404 5368
L3366 5368
" />
<path d="M3519 5415
L3462 5415
" />
<path d="M3490 5415
L3490 5315
L3481 5329
L3471 5339
L3462 5344
" />
<g >
</g>
</g>
<g style="fill:#000000; fill-opacity:0.0; 
stroke:#000000; stroke-width:25; stroke-opacity:1; 
stroke-linecap:round; stroke-linejoin:round;">
</g>
<g style="fill:#C2C200; fill-opacity:0.0; 
stroke:#C2C200; stroke-width:25; stroke-opacity:1; 
stroke-linecap:round; stroke-linejoin:round;">
</g>
<g style="fill:#C2C200; fill-opacity:0.0; 
stroke:#C2C200; stroke-width:19.685; stroke-opacity:1; 
stroke-linecap:round; stroke-linejoin:round;">
<path d="M1078 7083
L1078 1374
" />
<path d="M3834 7083
L1078 7083
" />
<path d="M3834 1374
L3834 7083
" />
<path d="M1078 1374
L3834 1374
" />
<g >
</g>
<g >
</g>
<g >
</g>
<g >
</g>
<g >
</g>
<g >
</g>
<g >
</g>
<g >
</g>
</g> 
</svg>
