%TF.GenerationSoftware,KiCad,Pcbnew,5.1.10-88a1d61d58~88~ubuntu20.10.1*%
%TF.CreationDate,2021-05-13T11:12:12-04:00*%
%TF.ProjectId,lick_detector,6c69636b-5f64-4657-9465-63746f722e6b,1.0*%
%TF.SameCoordinates,Original*%
%TF.FileFunction,Copper,L1,Top*%
%TF.FilePolarity,Positive*%
%FSLAX46Y46*%
G04 Gerber Fmt 4.6, Leading zero omitted, Abs format (unit mm)*
G04 Created by KiCad (PCBNEW 5.1.10-88a1d61d58~88~ubuntu20.10.1) date 2021-05-13 11:12:12*
%MOMM*%
%LPD*%
G01*
G04 APERTURE LIST*
%TA.AperFunction,SMDPad,CuDef*%
%ADD10C,0.500000*%
%TD*%
%TA.AperFunction,SMDPad,CuDef*%
%ADD11R,0.600000X0.700000*%
%TD*%
%TA.AperFunction,SMDPad,CuDef*%
%ADD12R,0.300000X0.570000*%
%TD*%
%TA.AperFunction,SMDPad,CuDef*%
%ADD13R,0.570000X0.300000*%
%TD*%
%TA.AperFunction,SMDPad,CuDef*%
%ADD14R,0.300000X0.700000*%
%TD*%
%TA.AperFunction,SMDPad,CuDef*%
%ADD15R,0.300000X1.000000*%
%TD*%
%TA.AperFunction,Conductor*%
%ADD16C,0.076200*%
%TD*%
%TA.AperFunction,Conductor*%
%ADD17C,0.100000*%
%TD*%
G04 APERTURE END LIST*
D10*
%TO.P,FID1,~*%
%TO.N,N/C*%
X152000000Y-99000000D03*
%TD*%
D11*
%TO.P,C1,2*%
%TO.N,GND*%
X150500000Y-101000000D03*
%TO.P,C1,1*%
%TO.N,VAA*%
X149500000Y-101000000D03*
%TD*%
%TO.P,U1,33*%
%TO.N,GND*%
%TA.AperFunction,SMDPad,CuDef*%
G36*
G01*
X151800000Y-92880000D02*
X151800000Y-96120000D01*
G75*
G02*
X151620000Y-96300000I-180000J0D01*
G01*
X148380000Y-96300000D01*
G75*
G02*
X148200000Y-96120000I0J180000D01*
G01*
X148200000Y-92880000D01*
G75*
G02*
X148380000Y-92700000I180000J0D01*
G01*
X151620000Y-92700000D01*
G75*
G02*
X151800000Y-92880000I0J-180000D01*
G01*
G37*
%TD.AperFunction*%
D12*
%TO.P,U1,32*%
%TO.N,N/C*%
X151750000Y-96885000D03*
%TO.P,U1,31*%
%TO.N,VAA*%
X151250000Y-96885000D03*
%TO.P,U1,30*%
%TO.N,N/C*%
X150750000Y-96885000D03*
%TO.P,U1,29*%
X150250000Y-96885000D03*
%TO.P,U1,28*%
X149750000Y-96885000D03*
%TO.P,U1,27*%
X149250000Y-96885000D03*
%TO.P,U1,26*%
%TO.N,/SCK*%
X148750000Y-96885000D03*
%TO.P,U1,25*%
%TO.N,N/C*%
X148250000Y-96885000D03*
D13*
%TO.P,U1,24*%
%TO.N,/MOSI*%
X147615000Y-96250000D03*
%TO.P,U1,23*%
%TO.N,/MISO*%
X147615000Y-95750000D03*
%TO.P,U1,22*%
%TO.N,N/C*%
X147615000Y-95250000D03*
%TO.P,U1,21*%
%TO.N,/INT2*%
X147615000Y-94750000D03*
%TO.P,U1,20*%
%TO.N,/INT1*%
X147615000Y-94250000D03*
%TO.P,U1,19*%
%TO.N,N/C*%
X147615000Y-93750000D03*
%TO.P,U1,18*%
X147615000Y-93250000D03*
%TO.P,U1,17*%
X147615000Y-92750000D03*
D12*
%TO.P,U1,16*%
X148250000Y-92115000D03*
%TO.P,U1,15*%
X148750000Y-92115000D03*
%TO.P,U1,14*%
X149250000Y-92115000D03*
%TO.P,U1,13*%
X149750000Y-92115000D03*
%TO.P,U1,12*%
X150250000Y-92115000D03*
%TO.P,U1,11*%
X150750000Y-92115000D03*
%TO.P,U1,10*%
X151250000Y-92115000D03*
%TO.P,U1,9*%
X151750000Y-92115000D03*
D13*
%TO.P,U1,8*%
X152385000Y-92750000D03*
%TO.P,U1,7*%
X152385000Y-93250000D03*
%TO.P,U1,6*%
%TO.N,/~CS*%
X152385000Y-93750000D03*
%TO.P,U1,5*%
%TO.N,Net-(R1-Pad2)*%
X152385000Y-94250000D03*
%TO.P,U1,4*%
%TO.N,GND*%
X152385000Y-94750000D03*
%TO.P,U1,3*%
X152385000Y-95250000D03*
%TO.P,U1,2*%
%TO.N,N/C*%
X152385000Y-95750000D03*
%TO.P,U1,1*%
%TO.N,GND*%
X152385000Y-96250000D03*
%TD*%
%TO.P,R1,2*%
%TO.N,Net-(R1-Pad2)*%
%TA.AperFunction,SMDPad,CuDef*%
G36*
G01*
X150090000Y-99100000D02*
X150090000Y-98900000D01*
G75*
G02*
X150190000Y-98800000I100000J0D01*
G01*
X150450000Y-98800000D01*
G75*
G02*
X150550000Y-98900000I0J-100000D01*
G01*
X150550000Y-99100000D01*
G75*
G02*
X150450000Y-99200000I-100000J0D01*
G01*
X150190000Y-99200000D01*
G75*
G02*
X150090000Y-99100000I0J100000D01*
G01*
G37*
%TD.AperFunction*%
%TO.P,R1,1*%
%TO.N,VAA*%
%TA.AperFunction,SMDPad,CuDef*%
G36*
G01*
X149450000Y-99100000D02*
X149450000Y-98900000D01*
G75*
G02*
X149550000Y-98800000I100000J0D01*
G01*
X149810000Y-98800000D01*
G75*
G02*
X149910000Y-98900000I0J-100000D01*
G01*
X149910000Y-99100000D01*
G75*
G02*
X149810000Y-99200000I-100000J0D01*
G01*
X149550000Y-99200000D01*
G75*
G02*
X149450000Y-99100000I0J100000D01*
G01*
G37*
%TD.AperFunction*%
%TD*%
%TO.P,C2,2*%
%TO.N,GND*%
%TA.AperFunction,SMDPad,CuDef*%
G36*
G01*
X150090000Y-100100000D02*
X150090000Y-99900000D01*
G75*
G02*
X150190000Y-99800000I100000J0D01*
G01*
X150450000Y-99800000D01*
G75*
G02*
X150550000Y-99900000I0J-100000D01*
G01*
X150550000Y-100100000D01*
G75*
G02*
X150450000Y-100200000I-100000J0D01*
G01*
X150190000Y-100200000D01*
G75*
G02*
X150090000Y-100100000I0J100000D01*
G01*
G37*
%TD.AperFunction*%
%TO.P,C2,1*%
%TO.N,VAA*%
%TA.AperFunction,SMDPad,CuDef*%
G36*
G01*
X149450000Y-100100000D02*
X149450000Y-99900000D01*
G75*
G02*
X149550000Y-99800000I100000J0D01*
G01*
X149810000Y-99800000D01*
G75*
G02*
X149910000Y-99900000I0J-100000D01*
G01*
X149910000Y-100100000D01*
G75*
G02*
X149810000Y-100200000I-100000J0D01*
G01*
X149550000Y-100200000D01*
G75*
G02*
X149450000Y-100100000I0J100000D01*
G01*
G37*
%TD.AperFunction*%
%TD*%
%TO.P,C3,2*%
%TO.N,GND*%
%TA.AperFunction,SMDPad,CuDef*%
G36*
G01*
X150090000Y-98100000D02*
X150090000Y-97900000D01*
G75*
G02*
X150190000Y-97800000I100000J0D01*
G01*
X150450000Y-97800000D01*
G75*
G02*
X150550000Y-97900000I0J-100000D01*
G01*
X150550000Y-98100000D01*
G75*
G02*
X150450000Y-98200000I-100000J0D01*
G01*
X150190000Y-98200000D01*
G75*
G02*
X150090000Y-98100000I0J100000D01*
G01*
G37*
%TD.AperFunction*%
%TO.P,C3,1*%
%TO.N,VAA*%
%TA.AperFunction,SMDPad,CuDef*%
G36*
G01*
X149450000Y-98100000D02*
X149450000Y-97900000D01*
G75*
G02*
X149550000Y-97800000I100000J0D01*
G01*
X149810000Y-97800000D01*
G75*
G02*
X149910000Y-97900000I0J-100000D01*
G01*
X149910000Y-98100000D01*
G75*
G02*
X149810000Y-98200000I-100000J0D01*
G01*
X149550000Y-98200000D01*
G75*
G02*
X149450000Y-98100000I0J100000D01*
G01*
G37*
%TD.AperFunction*%
%TD*%
D14*
%TO.P,P1,8*%
%TO.N,/~CS*%
X151750000Y-102250000D03*
%TO.P,P1,7*%
%TO.N,GND*%
X151250000Y-102250000D03*
%TO.P,P1,6*%
%TO.N,VAA*%
X150750000Y-102250000D03*
%TO.P,P1,5*%
%TO.N,/SCK*%
X150250000Y-102250000D03*
%TO.P,P1,4*%
%TO.N,/MOSI*%
X149750000Y-102250000D03*
%TO.P,P1,3*%
%TO.N,/MISO*%
X149250000Y-102250000D03*
%TO.P,P1,2*%
%TO.N,/INT2*%
X148750000Y-102250000D03*
%TO.P,P1,1*%
%TO.N,/INT1*%
X148250000Y-102250000D03*
D15*
%TO.P,P1,*%
%TO.N,*%
X152540000Y-104900000D03*
X147460000Y-104900000D03*
%TD*%
D16*
%TO.N,GND*%
X151250000Y-102714600D02*
X151977100Y-102714600D01*
X151977100Y-102714600D02*
X153266600Y-101425100D01*
X153266600Y-101425100D02*
X153266600Y-92958800D01*
X153266600Y-92958800D02*
X152792400Y-92484600D01*
X152792400Y-92484600D02*
X152015400Y-92484600D01*
X152015400Y-92484600D02*
X151985400Y-92514600D01*
X151985400Y-92514600D02*
X151985400Y-94500000D01*
X152584800Y-96250000D02*
X152584800Y-96647200D01*
X152584800Y-96647200D02*
X151232000Y-98000000D01*
X151232000Y-98000000D02*
X150320000Y-98000000D01*
X152584800Y-96250000D02*
X152784600Y-96250000D01*
X152385000Y-96250000D02*
X152584800Y-96250000D01*
X152584800Y-95250000D02*
X152784600Y-95449800D01*
X152784600Y-95449800D02*
X152784600Y-96250000D01*
X152584800Y-95250000D02*
X152784600Y-95050200D01*
X152784600Y-95050200D02*
X152784600Y-94750000D01*
X151985400Y-94500000D02*
X151985400Y-94750000D01*
X151985400Y-94500000D02*
X150000000Y-94500000D01*
X152385000Y-94750000D02*
X151985400Y-94750000D01*
X151250000Y-102250000D02*
X151250000Y-102714600D01*
X150914600Y-101000000D02*
X151250000Y-101335400D01*
X151250000Y-101335400D02*
X151250000Y-102250000D01*
X150320000Y-100000000D02*
X150500000Y-100180000D01*
X150500000Y-100180000D02*
X150500000Y-101000000D01*
X152385000Y-94750000D02*
X152784600Y-94750000D01*
X152385000Y-95250000D02*
X152584800Y-95250000D01*
X150500000Y-101000000D02*
X150914600Y-101000000D01*
%TO.N,VAA*%
X150750000Y-101785400D02*
X150597300Y-101632700D01*
X150597300Y-101632700D02*
X150312300Y-101632700D01*
X150312300Y-101632700D02*
X149679600Y-101000000D01*
X150750000Y-102250000D02*
X150750000Y-101785400D01*
X149680000Y-100000000D02*
X149679600Y-100000400D01*
X149679600Y-100000400D02*
X149679600Y-101000000D01*
X149680000Y-99000000D02*
X149680000Y-100000000D01*
X149500000Y-101000000D02*
X149679600Y-101000000D01*
X151250000Y-96885000D02*
X151250000Y-97284600D01*
X151250000Y-97284600D02*
X150395400Y-97284600D01*
X150395400Y-97284600D02*
X149680000Y-98000000D01*
X149680000Y-98000000D02*
X149680000Y-99000000D01*
%TO.N,/~CS*%
X151750000Y-101785400D02*
X153106300Y-100429100D01*
X153106300Y-100429100D02*
X153106300Y-94071700D01*
X153106300Y-94071700D02*
X152784600Y-93750000D01*
X151750000Y-102250000D02*
X151750000Y-101785400D01*
X152385000Y-93750000D02*
X152784600Y-93750000D01*
%TO.N,Net-(R1-Pad2)*%
X152385000Y-94250000D02*
X152784600Y-94250000D01*
X150320000Y-99000000D02*
X150486000Y-99000000D01*
X150486000Y-99000000D02*
X152953500Y-96532500D01*
X152953500Y-96532500D02*
X152953500Y-94418900D01*
X152953500Y-94418900D02*
X152784600Y-94250000D01*
%TO.N,/SCK*%
X150250000Y-102250000D02*
X150250000Y-101785400D01*
X150250000Y-101785400D02*
X149984700Y-101785400D01*
X149984700Y-101785400D02*
X149720000Y-101520700D01*
X149720000Y-101520700D02*
X149152600Y-101520700D01*
X149152600Y-101520700D02*
X148750000Y-101118100D01*
X148750000Y-101118100D02*
X148750000Y-96885000D01*
%TO.N,/MOSI*%
X147615000Y-96250000D02*
X148014600Y-96250000D01*
X149750000Y-102250000D02*
X149750000Y-101785400D01*
X149750000Y-101785400D02*
X149186000Y-101785400D01*
X149186000Y-101785400D02*
X147914600Y-100514000D01*
X147914600Y-100514000D02*
X147914600Y-96614600D01*
X147914600Y-96614600D02*
X148014600Y-96514600D01*
X148014600Y-96514600D02*
X148014600Y-96250000D01*
%TO.N,/MISO*%
X147615000Y-95750000D02*
X147215400Y-95750000D01*
X149250000Y-102250000D02*
X149250000Y-102065500D01*
X149250000Y-102065500D02*
X147215400Y-100030900D01*
X147215400Y-100030900D02*
X147215400Y-95750000D01*
%TO.N,/INT2*%
X147615000Y-94750000D02*
X147215400Y-94750000D01*
X148750000Y-102250000D02*
X148750000Y-101785400D01*
X148750000Y-101785400D02*
X147054500Y-100089900D01*
X147054500Y-100089900D02*
X147054500Y-94910900D01*
X147054500Y-94910900D02*
X147215400Y-94750000D01*
%TO.N,/INT1*%
X147615000Y-94250000D02*
X147215400Y-94250000D01*
X148250000Y-102250000D02*
X148250000Y-101785400D01*
X148250000Y-101785400D02*
X146854300Y-100389700D01*
X146854300Y-100389700D02*
X146854300Y-94611100D01*
X146854300Y-94611100D02*
X147215400Y-94250000D01*
%TD*%
%TO.N,GND*%
X153360701Y-105860700D02*
X146639300Y-105860700D01*
X146639300Y-104400000D01*
X147195147Y-104400000D01*
X147195147Y-105400000D01*
X147197354Y-105422407D01*
X147203890Y-105443952D01*
X147214503Y-105463809D01*
X147228787Y-105481213D01*
X147246191Y-105495497D01*
X147266048Y-105506110D01*
X147287593Y-105512646D01*
X147310000Y-105514853D01*
X147610000Y-105514853D01*
X147632407Y-105512646D01*
X147653952Y-105506110D01*
X147673809Y-105495497D01*
X147691213Y-105481213D01*
X147705497Y-105463809D01*
X147716110Y-105443952D01*
X147722646Y-105422407D01*
X147724853Y-105400000D01*
X147724853Y-104400000D01*
X152275147Y-104400000D01*
X152275147Y-105400000D01*
X152277354Y-105422407D01*
X152283890Y-105443952D01*
X152294503Y-105463809D01*
X152308787Y-105481213D01*
X152326191Y-105495497D01*
X152346048Y-105506110D01*
X152367593Y-105512646D01*
X152390000Y-105514853D01*
X152690000Y-105514853D01*
X152712407Y-105512646D01*
X152733952Y-105506110D01*
X152753809Y-105495497D01*
X152771213Y-105481213D01*
X152785497Y-105463809D01*
X152796110Y-105443952D01*
X152802646Y-105422407D01*
X152804853Y-105400000D01*
X152804853Y-104400000D01*
X152802646Y-104377593D01*
X152796110Y-104356048D01*
X152785497Y-104336191D01*
X152771213Y-104318787D01*
X152753809Y-104304503D01*
X152733952Y-104293890D01*
X152712407Y-104287354D01*
X152690000Y-104285147D01*
X152390000Y-104285147D01*
X152367593Y-104287354D01*
X152346048Y-104293890D01*
X152326191Y-104304503D01*
X152308787Y-104318787D01*
X152294503Y-104336191D01*
X152283890Y-104356048D01*
X152277354Y-104377593D01*
X152275147Y-104400000D01*
X147724853Y-104400000D01*
X147722646Y-104377593D01*
X147716110Y-104356048D01*
X147705497Y-104336191D01*
X147691213Y-104318787D01*
X147673809Y-104304503D01*
X147653952Y-104293890D01*
X147632407Y-104287354D01*
X147610000Y-104285147D01*
X147310000Y-104285147D01*
X147287593Y-104287354D01*
X147266048Y-104293890D01*
X147246191Y-104304503D01*
X147228787Y-104318787D01*
X147214503Y-104336191D01*
X147203890Y-104356048D01*
X147197354Y-104377593D01*
X147195147Y-104400000D01*
X146639300Y-104400000D01*
X146639300Y-94611100D01*
X146701164Y-94611100D01*
X146701901Y-94618584D01*
X146701900Y-100382226D01*
X146701164Y-100389700D01*
X146701900Y-100397174D01*
X146701900Y-100397183D01*
X146704105Y-100419575D01*
X146706941Y-100428922D01*
X146712820Y-100448302D01*
X146726971Y-100474778D01*
X146741245Y-100492171D01*
X146741248Y-100492174D01*
X146746016Y-100497984D01*
X146751827Y-100502753D01*
X148047521Y-101798447D01*
X148036191Y-101804503D01*
X148018787Y-101818787D01*
X148004503Y-101836191D01*
X147993890Y-101856048D01*
X147987354Y-101877593D01*
X147985147Y-101900000D01*
X147985147Y-102600000D01*
X147987354Y-102622407D01*
X147993890Y-102643952D01*
X148004503Y-102663809D01*
X148018787Y-102681213D01*
X148036191Y-102695497D01*
X148056048Y-102706110D01*
X148077593Y-102712646D01*
X148100000Y-102714853D01*
X148400000Y-102714853D01*
X148422407Y-102712646D01*
X148443952Y-102706110D01*
X148463809Y-102695497D01*
X148481213Y-102681213D01*
X148495497Y-102663809D01*
X148500000Y-102655384D01*
X148504503Y-102663809D01*
X148518787Y-102681213D01*
X148536191Y-102695497D01*
X148556048Y-102706110D01*
X148577593Y-102712646D01*
X148600000Y-102714853D01*
X148900000Y-102714853D01*
X148922407Y-102712646D01*
X148943952Y-102706110D01*
X148963809Y-102695497D01*
X148981213Y-102681213D01*
X148995497Y-102663809D01*
X149000000Y-102655384D01*
X149004503Y-102663809D01*
X149018787Y-102681213D01*
X149036191Y-102695497D01*
X149056048Y-102706110D01*
X149077593Y-102712646D01*
X149100000Y-102714853D01*
X149400000Y-102714853D01*
X149422407Y-102712646D01*
X149443952Y-102706110D01*
X149463809Y-102695497D01*
X149481213Y-102681213D01*
X149495497Y-102663809D01*
X149500000Y-102655384D01*
X149504503Y-102663809D01*
X149518787Y-102681213D01*
X149536191Y-102695497D01*
X149556048Y-102706110D01*
X149577593Y-102712646D01*
X149600000Y-102714853D01*
X149900000Y-102714853D01*
X149922407Y-102712646D01*
X149943952Y-102706110D01*
X149963809Y-102695497D01*
X149981213Y-102681213D01*
X149995497Y-102663809D01*
X150000000Y-102655384D01*
X150004503Y-102663809D01*
X150018787Y-102681213D01*
X150036191Y-102695497D01*
X150056048Y-102706110D01*
X150077593Y-102712646D01*
X150100000Y-102714853D01*
X150400000Y-102714853D01*
X150422407Y-102712646D01*
X150443952Y-102706110D01*
X150463809Y-102695497D01*
X150481213Y-102681213D01*
X150495497Y-102663809D01*
X150500000Y-102655384D01*
X150504503Y-102663809D01*
X150518787Y-102681213D01*
X150536191Y-102695497D01*
X150556048Y-102706110D01*
X150577593Y-102712646D01*
X150600000Y-102714853D01*
X150900000Y-102714853D01*
X150922407Y-102712646D01*
X150943952Y-102706110D01*
X150963809Y-102695497D01*
X150981213Y-102681213D01*
X150983571Y-102678341D01*
X151000739Y-102699261D01*
X151022011Y-102716718D01*
X151046280Y-102729691D01*
X151072614Y-102737679D01*
X151100000Y-102740376D01*
X151202375Y-102739700D01*
X151237300Y-102704775D01*
X151237300Y-102262700D01*
X151217300Y-102262700D01*
X151217300Y-102237300D01*
X151237300Y-102237300D01*
X151237300Y-101795225D01*
X151202375Y-101760300D01*
X151100000Y-101759624D01*
X151072614Y-101762321D01*
X151046280Y-101770309D01*
X151022011Y-101783282D01*
X151000739Y-101800739D01*
X150983571Y-101821659D01*
X150981213Y-101818787D01*
X150963809Y-101804503D01*
X150943952Y-101793890D01*
X150922407Y-101787354D01*
X150903130Y-101785455D01*
X150903136Y-101785399D01*
X150902400Y-101777925D01*
X150902400Y-101777916D01*
X150900195Y-101755524D01*
X150891480Y-101726797D01*
X150884892Y-101714472D01*
X150877329Y-101700321D01*
X150863054Y-101682928D01*
X150863053Y-101682927D01*
X150858284Y-101677116D01*
X150852473Y-101672347D01*
X150710353Y-101530227D01*
X150705584Y-101524416D01*
X150682378Y-101505371D01*
X150655903Y-101491220D01*
X150651813Y-101489979D01*
X150800000Y-101490376D01*
X150827386Y-101487679D01*
X150853720Y-101479691D01*
X150877989Y-101466718D01*
X150899261Y-101449261D01*
X150916718Y-101427989D01*
X150929691Y-101403720D01*
X150937679Y-101377386D01*
X150940376Y-101350000D01*
X150939700Y-101047625D01*
X150904775Y-101012700D01*
X150512700Y-101012700D01*
X150512700Y-101032700D01*
X150487300Y-101032700D01*
X150487300Y-101012700D01*
X150095225Y-101012700D01*
X150060300Y-101047625D01*
X150060038Y-101164911D01*
X149914853Y-101019727D01*
X149914853Y-100650000D01*
X150059624Y-100650000D01*
X150060300Y-100952375D01*
X150095225Y-100987300D01*
X150487300Y-100987300D01*
X150487300Y-100545225D01*
X150512700Y-100545225D01*
X150512700Y-100987300D01*
X150904775Y-100987300D01*
X150939700Y-100952375D01*
X150940376Y-100650000D01*
X150937679Y-100622614D01*
X150929691Y-100596280D01*
X150916718Y-100572011D01*
X150899261Y-100550739D01*
X150877989Y-100533282D01*
X150853720Y-100520309D01*
X150827386Y-100512321D01*
X150800000Y-100509624D01*
X150547625Y-100510300D01*
X150512700Y-100545225D01*
X150487300Y-100545225D01*
X150452375Y-100510300D01*
X150200000Y-100509624D01*
X150172614Y-100512321D01*
X150146280Y-100520309D01*
X150122011Y-100533282D01*
X150100739Y-100550739D01*
X150083282Y-100572011D01*
X150070309Y-100596280D01*
X150062321Y-100622614D01*
X150059624Y-100650000D01*
X149914853Y-100650000D01*
X149912646Y-100627593D01*
X149906110Y-100606048D01*
X149895497Y-100586191D01*
X149881213Y-100568787D01*
X149863809Y-100554503D01*
X149843952Y-100543890D01*
X149832000Y-100540264D01*
X149832000Y-100312686D01*
X149851916Y-100310725D01*
X149892221Y-100298498D01*
X149929366Y-100278644D01*
X149960195Y-100253343D01*
X149960309Y-100253720D01*
X149973282Y-100277989D01*
X149990739Y-100299261D01*
X150012011Y-100316718D01*
X150036280Y-100329691D01*
X150062614Y-100337679D01*
X150090000Y-100340376D01*
X150272375Y-100339700D01*
X150307300Y-100304775D01*
X150307300Y-100012700D01*
X150332700Y-100012700D01*
X150332700Y-100304775D01*
X150367625Y-100339700D01*
X150550000Y-100340376D01*
X150577386Y-100337679D01*
X150603720Y-100329691D01*
X150627989Y-100316718D01*
X150649261Y-100299261D01*
X150666718Y-100277989D01*
X150679691Y-100253720D01*
X150687679Y-100227386D01*
X150690376Y-100200000D01*
X150689700Y-100047625D01*
X150654775Y-100012700D01*
X150332700Y-100012700D01*
X150307300Y-100012700D01*
X150287300Y-100012700D01*
X150287300Y-99987300D01*
X150307300Y-99987300D01*
X150307300Y-99695225D01*
X150332700Y-99695225D01*
X150332700Y-99987300D01*
X150654775Y-99987300D01*
X150689700Y-99952375D01*
X150690376Y-99800000D01*
X150687679Y-99772614D01*
X150679691Y-99746280D01*
X150666718Y-99722011D01*
X150649261Y-99700739D01*
X150627989Y-99683282D01*
X150603720Y-99670309D01*
X150577386Y-99662321D01*
X150550000Y-99659624D01*
X150367625Y-99660300D01*
X150332700Y-99695225D01*
X150307300Y-99695225D01*
X150272375Y-99660300D01*
X150090000Y-99659624D01*
X150062614Y-99662321D01*
X150036280Y-99670309D01*
X150012011Y-99683282D01*
X149990739Y-99700739D01*
X149973282Y-99722011D01*
X149960309Y-99746280D01*
X149960195Y-99746657D01*
X149929366Y-99721356D01*
X149892221Y-99701502D01*
X149851916Y-99689275D01*
X149832400Y-99687353D01*
X149832400Y-99312647D01*
X149851916Y-99310725D01*
X149892221Y-99298498D01*
X149929366Y-99278644D01*
X149961924Y-99251924D01*
X149988644Y-99219366D01*
X150000000Y-99198120D01*
X150011356Y-99219366D01*
X150038076Y-99251924D01*
X150070634Y-99278644D01*
X150107779Y-99298498D01*
X150148084Y-99310725D01*
X150190000Y-99314853D01*
X150450000Y-99314853D01*
X150491916Y-99310725D01*
X150532221Y-99298498D01*
X150569366Y-99278644D01*
X150601924Y-99251924D01*
X150628644Y-99219366D01*
X150648498Y-99182221D01*
X150660725Y-99141916D01*
X150664853Y-99100000D01*
X150664853Y-99036673D01*
X150754524Y-98947002D01*
X151461900Y-98947002D01*
X151461900Y-99052998D01*
X151482579Y-99156958D01*
X151523142Y-99254886D01*
X151582030Y-99343019D01*
X151656981Y-99417970D01*
X151745114Y-99476858D01*
X151843042Y-99517421D01*
X151947002Y-99538100D01*
X152052998Y-99538100D01*
X152156958Y-99517421D01*
X152254886Y-99476858D01*
X152343019Y-99417970D01*
X152417970Y-99343019D01*
X152476858Y-99254886D01*
X152517421Y-99156958D01*
X152538100Y-99052998D01*
X152538100Y-98947002D01*
X152517421Y-98843042D01*
X152476858Y-98745114D01*
X152417970Y-98656981D01*
X152343019Y-98582030D01*
X152254886Y-98523142D01*
X152156958Y-98482579D01*
X152052998Y-98461900D01*
X151947002Y-98461900D01*
X151843042Y-98482579D01*
X151745114Y-98523142D01*
X151656981Y-98582030D01*
X151582030Y-98656981D01*
X151523142Y-98745114D01*
X151482579Y-98843042D01*
X151461900Y-98947002D01*
X150754524Y-98947002D01*
X152953901Y-96747626D01*
X152953900Y-100365974D01*
X151647523Y-101672351D01*
X151641717Y-101677116D01*
X151636952Y-101682922D01*
X151636945Y-101682929D01*
X151622671Y-101700322D01*
X151608520Y-101726798D01*
X151604217Y-101740984D01*
X151599807Y-101755523D01*
X151599806Y-101755525D01*
X151596864Y-101785400D01*
X151596869Y-101785455D01*
X151577593Y-101787354D01*
X151556048Y-101793890D01*
X151536191Y-101804503D01*
X151518787Y-101818787D01*
X151516429Y-101821659D01*
X151499261Y-101800739D01*
X151477989Y-101783282D01*
X151453720Y-101770309D01*
X151427386Y-101762321D01*
X151400000Y-101759624D01*
X151297625Y-101760300D01*
X151262700Y-101795225D01*
X151262700Y-102237300D01*
X151282700Y-102237300D01*
X151282700Y-102262700D01*
X151262700Y-102262700D01*
X151262700Y-102704775D01*
X151297625Y-102739700D01*
X151400000Y-102740376D01*
X151427386Y-102737679D01*
X151453720Y-102729691D01*
X151477989Y-102716718D01*
X151499261Y-102699261D01*
X151516429Y-102678341D01*
X151518787Y-102681213D01*
X151536191Y-102695497D01*
X151556048Y-102706110D01*
X151577593Y-102712646D01*
X151600000Y-102714853D01*
X151900000Y-102714853D01*
X151922407Y-102712646D01*
X151943952Y-102706110D01*
X151963809Y-102695497D01*
X151981213Y-102681213D01*
X151995497Y-102663809D01*
X152006110Y-102643952D01*
X152012646Y-102622407D01*
X152014853Y-102600000D01*
X152014853Y-101900000D01*
X152012646Y-101877593D01*
X152006110Y-101856048D01*
X151995497Y-101836191D01*
X151981213Y-101818787D01*
X151963809Y-101804503D01*
X151952479Y-101798447D01*
X153208774Y-100542152D01*
X153214584Y-100537384D01*
X153219676Y-100531180D01*
X153233629Y-100514179D01*
X153247780Y-100487703D01*
X153251701Y-100474777D01*
X153256495Y-100458976D01*
X153258700Y-100436584D01*
X153258700Y-100436574D01*
X153259436Y-100429100D01*
X153258700Y-100421626D01*
X153258700Y-94079182D01*
X153259437Y-94071700D01*
X153258700Y-94064216D01*
X153256495Y-94041824D01*
X153247780Y-94013097D01*
X153247539Y-94012646D01*
X153233629Y-93986621D01*
X153219355Y-93969229D01*
X153219353Y-93969227D01*
X153214584Y-93963416D01*
X153208773Y-93958647D01*
X152897653Y-93647527D01*
X152892884Y-93641716D01*
X152869678Y-93622671D01*
X152843203Y-93608520D01*
X152814476Y-93599805D01*
X152792084Y-93597600D01*
X152792074Y-93597600D01*
X152784600Y-93596864D01*
X152784545Y-93596869D01*
X152782646Y-93577593D01*
X152776110Y-93556048D01*
X152765497Y-93536191D01*
X152751213Y-93518787D01*
X152733809Y-93504503D01*
X152725384Y-93500000D01*
X152733809Y-93495497D01*
X152751213Y-93481213D01*
X152765497Y-93463809D01*
X152776110Y-93443952D01*
X152782646Y-93422407D01*
X152784853Y-93400000D01*
X152784853Y-93100000D01*
X152782646Y-93077593D01*
X152776110Y-93056048D01*
X152765497Y-93036191D01*
X152751213Y-93018787D01*
X152733809Y-93004503D01*
X152725384Y-93000000D01*
X152733809Y-92995497D01*
X152751213Y-92981213D01*
X152765497Y-92963809D01*
X152776110Y-92943952D01*
X152782646Y-92922407D01*
X152784853Y-92900000D01*
X152784853Y-92600000D01*
X152782646Y-92577593D01*
X152776110Y-92556048D01*
X152765497Y-92536191D01*
X152751213Y-92518787D01*
X152733809Y-92504503D01*
X152713952Y-92493890D01*
X152692407Y-92487354D01*
X152670000Y-92485147D01*
X152100000Y-92485147D01*
X152077593Y-92487354D01*
X152056048Y-92493890D01*
X152036191Y-92504503D01*
X152018787Y-92518787D01*
X152004503Y-92536191D01*
X151993890Y-92556048D01*
X151987354Y-92577593D01*
X151985147Y-92600000D01*
X151985147Y-92900000D01*
X151987354Y-92922407D01*
X151993890Y-92943952D01*
X152004503Y-92963809D01*
X152018787Y-92981213D01*
X152036191Y-92995497D01*
X152044616Y-93000000D01*
X152036191Y-93004503D01*
X152018787Y-93018787D01*
X152004503Y-93036191D01*
X151993890Y-93056048D01*
X151987354Y-93077593D01*
X151985147Y-93100000D01*
X151985147Y-93400000D01*
X151987354Y-93422407D01*
X151993890Y-93443952D01*
X152004503Y-93463809D01*
X152018787Y-93481213D01*
X152036191Y-93495497D01*
X152044616Y-93500000D01*
X152036191Y-93504503D01*
X152018787Y-93518787D01*
X152004503Y-93536191D01*
X151993890Y-93556048D01*
X151987354Y-93577593D01*
X151985147Y-93600000D01*
X151985147Y-93900000D01*
X151987354Y-93922407D01*
X151993890Y-93943952D01*
X152004503Y-93963809D01*
X152018787Y-93981213D01*
X152036191Y-93995497D01*
X152044616Y-94000000D01*
X152036191Y-94004503D01*
X152018787Y-94018787D01*
X152004503Y-94036191D01*
X151993890Y-94056048D01*
X151987354Y-94077593D01*
X151985147Y-94100000D01*
X151985147Y-94400000D01*
X151987354Y-94422407D01*
X151993890Y-94443952D01*
X152004503Y-94463809D01*
X152018787Y-94481213D01*
X152021659Y-94483571D01*
X152000739Y-94500739D01*
X151983282Y-94522011D01*
X151970309Y-94546280D01*
X151962321Y-94572614D01*
X151959624Y-94600000D01*
X151960300Y-94702375D01*
X151995225Y-94737300D01*
X152372300Y-94737300D01*
X152372300Y-94717300D01*
X152397700Y-94717300D01*
X152397700Y-94737300D01*
X152417700Y-94737300D01*
X152417700Y-94762700D01*
X152397700Y-94762700D01*
X152397700Y-95237300D01*
X152417700Y-95237300D01*
X152417700Y-95262700D01*
X152397700Y-95262700D01*
X152397700Y-95282700D01*
X152372300Y-95282700D01*
X152372300Y-95262700D01*
X151995225Y-95262700D01*
X151960300Y-95297625D01*
X151959624Y-95400000D01*
X151962321Y-95427386D01*
X151970309Y-95453720D01*
X151983282Y-95477989D01*
X152000739Y-95499261D01*
X152021659Y-95516429D01*
X152018787Y-95518787D01*
X152004503Y-95536191D01*
X151993890Y-95556048D01*
X151987354Y-95577593D01*
X151985147Y-95600000D01*
X151985147Y-95900000D01*
X151987354Y-95922407D01*
X151993890Y-95943952D01*
X152004503Y-95963809D01*
X152018787Y-95981213D01*
X152021659Y-95983571D01*
X152000739Y-96000739D01*
X151983282Y-96022011D01*
X151970309Y-96046280D01*
X151962321Y-96072614D01*
X151959624Y-96100000D01*
X151960300Y-96202375D01*
X151995225Y-96237300D01*
X152372300Y-96237300D01*
X152372300Y-96217300D01*
X152397700Y-96217300D01*
X152397700Y-96237300D01*
X152417700Y-96237300D01*
X152417700Y-96262700D01*
X152397700Y-96262700D01*
X152397700Y-96504775D01*
X152432625Y-96539700D01*
X152670000Y-96540376D01*
X152697386Y-96537679D01*
X152723720Y-96529691D01*
X152747989Y-96516718D01*
X152769261Y-96499261D01*
X152786718Y-96477989D01*
X152799691Y-96453720D01*
X152801100Y-96449075D01*
X152801100Y-96469373D01*
X150556171Y-98714303D01*
X150532221Y-98701502D01*
X150491916Y-98689275D01*
X150450000Y-98685147D01*
X150190000Y-98685147D01*
X150148084Y-98689275D01*
X150107779Y-98701502D01*
X150070634Y-98721356D01*
X150038076Y-98748076D01*
X150011356Y-98780634D01*
X150000000Y-98801880D01*
X149988644Y-98780634D01*
X149961924Y-98748076D01*
X149929366Y-98721356D01*
X149892221Y-98701502D01*
X149851916Y-98689275D01*
X149832400Y-98687353D01*
X149832400Y-98312647D01*
X149851916Y-98310725D01*
X149892221Y-98298498D01*
X149929366Y-98278644D01*
X149960195Y-98253343D01*
X149960309Y-98253720D01*
X149973282Y-98277989D01*
X149990739Y-98299261D01*
X150012011Y-98316718D01*
X150036280Y-98329691D01*
X150062614Y-98337679D01*
X150090000Y-98340376D01*
X150272375Y-98339700D01*
X150307300Y-98304775D01*
X150307300Y-98012700D01*
X150332700Y-98012700D01*
X150332700Y-98304775D01*
X150367625Y-98339700D01*
X150550000Y-98340376D01*
X150577386Y-98337679D01*
X150603720Y-98329691D01*
X150627989Y-98316718D01*
X150649261Y-98299261D01*
X150666718Y-98277989D01*
X150679691Y-98253720D01*
X150687679Y-98227386D01*
X150690376Y-98200000D01*
X150689700Y-98047625D01*
X150654775Y-98012700D01*
X150332700Y-98012700D01*
X150307300Y-98012700D01*
X150287300Y-98012700D01*
X150287300Y-97987300D01*
X150307300Y-97987300D01*
X150307300Y-97695225D01*
X150332700Y-97695225D01*
X150332700Y-97987300D01*
X150654775Y-97987300D01*
X150689700Y-97952375D01*
X150690376Y-97800000D01*
X150687679Y-97772614D01*
X150679691Y-97746280D01*
X150666718Y-97722011D01*
X150649261Y-97700739D01*
X150627989Y-97683282D01*
X150603720Y-97670309D01*
X150577386Y-97662321D01*
X150550000Y-97659624D01*
X150367625Y-97660300D01*
X150332700Y-97695225D01*
X150307300Y-97695225D01*
X150272375Y-97660300D01*
X150235363Y-97660163D01*
X150458526Y-97437000D01*
X151242516Y-97437000D01*
X151250000Y-97437737D01*
X151257484Y-97437000D01*
X151279876Y-97434795D01*
X151308603Y-97426080D01*
X151335078Y-97411929D01*
X151358284Y-97392884D01*
X151377329Y-97369678D01*
X151391480Y-97343203D01*
X151400195Y-97314476D01*
X151403137Y-97284600D01*
X151403132Y-97284545D01*
X151422407Y-97282646D01*
X151443952Y-97276110D01*
X151463809Y-97265497D01*
X151481213Y-97251213D01*
X151495497Y-97233809D01*
X151500000Y-97225384D01*
X151504503Y-97233809D01*
X151518787Y-97251213D01*
X151536191Y-97265497D01*
X151556048Y-97276110D01*
X151577593Y-97282646D01*
X151600000Y-97284853D01*
X151900000Y-97284853D01*
X151922407Y-97282646D01*
X151943952Y-97276110D01*
X151963809Y-97265497D01*
X151981213Y-97251213D01*
X151995497Y-97233809D01*
X152006110Y-97213952D01*
X152012646Y-97192407D01*
X152014853Y-97170000D01*
X152014853Y-96600000D01*
X152012646Y-96577593D01*
X152006110Y-96556048D01*
X151995497Y-96536191D01*
X151981213Y-96518787D01*
X151963809Y-96504503D01*
X151943952Y-96493890D01*
X151922407Y-96487354D01*
X151900000Y-96485147D01*
X151600000Y-96485147D01*
X151577593Y-96487354D01*
X151556048Y-96493890D01*
X151536191Y-96504503D01*
X151518787Y-96518787D01*
X151504503Y-96536191D01*
X151500000Y-96544616D01*
X151495497Y-96536191D01*
X151481213Y-96518787D01*
X151463809Y-96504503D01*
X151443952Y-96493890D01*
X151422407Y-96487354D01*
X151400000Y-96485147D01*
X151100000Y-96485147D01*
X151077593Y-96487354D01*
X151056048Y-96493890D01*
X151036191Y-96504503D01*
X151018787Y-96518787D01*
X151004503Y-96536191D01*
X151000000Y-96544616D01*
X150995497Y-96536191D01*
X150981213Y-96518787D01*
X150963809Y-96504503D01*
X150943952Y-96493890D01*
X150922407Y-96487354D01*
X150900000Y-96485147D01*
X150600000Y-96485147D01*
X150577593Y-96487354D01*
X150556048Y-96493890D01*
X150536191Y-96504503D01*
X150518787Y-96518787D01*
X150504503Y-96536191D01*
X150500000Y-96544616D01*
X150495497Y-96536191D01*
X150481213Y-96518787D01*
X150463809Y-96504503D01*
X150443952Y-96493890D01*
X150422407Y-96487354D01*
X150400000Y-96485147D01*
X150100000Y-96485147D01*
X150077593Y-96487354D01*
X150056048Y-96493890D01*
X150036191Y-96504503D01*
X150018787Y-96518787D01*
X150004503Y-96536191D01*
X150000000Y-96544616D01*
X149995497Y-96536191D01*
X149981213Y-96518787D01*
X149963809Y-96504503D01*
X149943952Y-96493890D01*
X149922407Y-96487354D01*
X149900000Y-96485147D01*
X149600000Y-96485147D01*
X149577593Y-96487354D01*
X149556048Y-96493890D01*
X149536191Y-96504503D01*
X149518787Y-96518787D01*
X149504503Y-96536191D01*
X149500000Y-96544616D01*
X149495497Y-96536191D01*
X149481213Y-96518787D01*
X149463809Y-96504503D01*
X149443952Y-96493890D01*
X149422407Y-96487354D01*
X149400000Y-96485147D01*
X149100000Y-96485147D01*
X149077593Y-96487354D01*
X149056048Y-96493890D01*
X149036191Y-96504503D01*
X149018787Y-96518787D01*
X149004503Y-96536191D01*
X149000000Y-96544616D01*
X148995497Y-96536191D01*
X148981213Y-96518787D01*
X148963809Y-96504503D01*
X148943952Y-96493890D01*
X148922407Y-96487354D01*
X148900000Y-96485147D01*
X148600000Y-96485147D01*
X148577593Y-96487354D01*
X148556048Y-96493890D01*
X148536191Y-96504503D01*
X148518787Y-96518787D01*
X148504503Y-96536191D01*
X148500000Y-96544616D01*
X148495497Y-96536191D01*
X148481213Y-96518787D01*
X148463809Y-96504503D01*
X148443952Y-96493890D01*
X148422407Y-96487354D01*
X148400000Y-96485147D01*
X148167000Y-96485147D01*
X148167000Y-96435976D01*
X148172614Y-96437679D01*
X148200000Y-96440376D01*
X149952375Y-96439700D01*
X149987300Y-96404775D01*
X149987300Y-94512700D01*
X150012700Y-94512700D01*
X150012700Y-96404775D01*
X150047625Y-96439700D01*
X151800000Y-96440376D01*
X151827386Y-96437679D01*
X151853720Y-96429691D01*
X151877989Y-96416718D01*
X151898360Y-96400000D01*
X151959624Y-96400000D01*
X151962321Y-96427386D01*
X151970309Y-96453720D01*
X151983282Y-96477989D01*
X152000739Y-96499261D01*
X152022011Y-96516718D01*
X152046280Y-96529691D01*
X152072614Y-96537679D01*
X152100000Y-96540376D01*
X152337375Y-96539700D01*
X152372300Y-96504775D01*
X152372300Y-96262700D01*
X151995225Y-96262700D01*
X151960300Y-96297625D01*
X151959624Y-96400000D01*
X151898360Y-96400000D01*
X151899261Y-96399261D01*
X151916718Y-96377989D01*
X151929691Y-96353720D01*
X151937679Y-96327386D01*
X151940376Y-96300000D01*
X151939836Y-94900000D01*
X151959624Y-94900000D01*
X151962321Y-94927386D01*
X151970309Y-94953720D01*
X151983282Y-94977989D01*
X152000739Y-94999261D01*
X152001639Y-95000000D01*
X152000739Y-95000739D01*
X151983282Y-95022011D01*
X151970309Y-95046280D01*
X151962321Y-95072614D01*
X151959624Y-95100000D01*
X151960300Y-95202375D01*
X151995225Y-95237300D01*
X152372300Y-95237300D01*
X152372300Y-94762700D01*
X151995225Y-94762700D01*
X151960300Y-94797625D01*
X151959624Y-94900000D01*
X151939836Y-94900000D01*
X151939700Y-94547625D01*
X151904775Y-94512700D01*
X150012700Y-94512700D01*
X149987300Y-94512700D01*
X148095225Y-94512700D01*
X148060300Y-94547625D01*
X148059699Y-96104423D01*
X148044476Y-96099805D01*
X148022084Y-96097600D01*
X148014600Y-96096863D01*
X148014545Y-96096868D01*
X148012646Y-96077593D01*
X148006110Y-96056048D01*
X147995497Y-96036191D01*
X147981213Y-96018787D01*
X147963809Y-96004503D01*
X147955384Y-96000000D01*
X147963809Y-95995497D01*
X147981213Y-95981213D01*
X147995497Y-95963809D01*
X148006110Y-95943952D01*
X148012646Y-95922407D01*
X148014853Y-95900000D01*
X148014853Y-95600000D01*
X148012646Y-95577593D01*
X148006110Y-95556048D01*
X147995497Y-95536191D01*
X147981213Y-95518787D01*
X147963809Y-95504503D01*
X147955384Y-95500000D01*
X147963809Y-95495497D01*
X147981213Y-95481213D01*
X147995497Y-95463809D01*
X148006110Y-95443952D01*
X148012646Y-95422407D01*
X148014853Y-95400000D01*
X148014853Y-95100000D01*
X148012646Y-95077593D01*
X148006110Y-95056048D01*
X147995497Y-95036191D01*
X147981213Y-95018787D01*
X147963809Y-95004503D01*
X147955384Y-95000000D01*
X147963809Y-94995497D01*
X147981213Y-94981213D01*
X147995497Y-94963809D01*
X148006110Y-94943952D01*
X148012646Y-94922407D01*
X148014853Y-94900000D01*
X148014853Y-94600000D01*
X148012646Y-94577593D01*
X148006110Y-94556048D01*
X147995497Y-94536191D01*
X147981213Y-94518787D01*
X147963809Y-94504503D01*
X147955384Y-94500000D01*
X147963809Y-94495497D01*
X147981213Y-94481213D01*
X147995497Y-94463809D01*
X148006110Y-94443952D01*
X148012646Y-94422407D01*
X148014853Y-94400000D01*
X148014853Y-94100000D01*
X148012646Y-94077593D01*
X148006110Y-94056048D01*
X147995497Y-94036191D01*
X147981213Y-94018787D01*
X147963809Y-94004503D01*
X147955384Y-94000000D01*
X147963809Y-93995497D01*
X147981213Y-93981213D01*
X147995497Y-93963809D01*
X148006110Y-93943952D01*
X148012646Y-93922407D01*
X148014853Y-93900000D01*
X148014853Y-93600000D01*
X148012646Y-93577593D01*
X148006110Y-93556048D01*
X147995497Y-93536191D01*
X147981213Y-93518787D01*
X147963809Y-93504503D01*
X147955384Y-93500000D01*
X147963809Y-93495497D01*
X147981213Y-93481213D01*
X147995497Y-93463809D01*
X148006110Y-93443952D01*
X148012646Y-93422407D01*
X148014853Y-93400000D01*
X148014853Y-93100000D01*
X148012646Y-93077593D01*
X148006110Y-93056048D01*
X147995497Y-93036191D01*
X147981213Y-93018787D01*
X147963809Y-93004503D01*
X147955384Y-93000000D01*
X147963809Y-92995497D01*
X147981213Y-92981213D01*
X147995497Y-92963809D01*
X148006110Y-92943952D01*
X148012646Y-92922407D01*
X148014853Y-92900000D01*
X148014853Y-92700000D01*
X148059624Y-92700000D01*
X148060300Y-94452375D01*
X148095225Y-94487300D01*
X149987300Y-94487300D01*
X149987300Y-92595225D01*
X150012700Y-92595225D01*
X150012700Y-94487300D01*
X151904775Y-94487300D01*
X151939700Y-94452375D01*
X151940376Y-92700000D01*
X151937679Y-92672614D01*
X151929691Y-92646280D01*
X151916718Y-92622011D01*
X151899261Y-92600739D01*
X151877989Y-92583282D01*
X151853720Y-92570309D01*
X151827386Y-92562321D01*
X151800000Y-92559624D01*
X150047625Y-92560300D01*
X150012700Y-92595225D01*
X149987300Y-92595225D01*
X149952375Y-92560300D01*
X148200000Y-92559624D01*
X148172614Y-92562321D01*
X148146280Y-92570309D01*
X148122011Y-92583282D01*
X148100739Y-92600739D01*
X148083282Y-92622011D01*
X148070309Y-92646280D01*
X148062321Y-92672614D01*
X148059624Y-92700000D01*
X148014853Y-92700000D01*
X148014853Y-92600000D01*
X148012646Y-92577593D01*
X148006110Y-92556048D01*
X147995497Y-92536191D01*
X147981213Y-92518787D01*
X147963809Y-92504503D01*
X147943952Y-92493890D01*
X147922407Y-92487354D01*
X147900000Y-92485147D01*
X147330000Y-92485147D01*
X147307593Y-92487354D01*
X147286048Y-92493890D01*
X147266191Y-92504503D01*
X147248787Y-92518787D01*
X147234503Y-92536191D01*
X147223890Y-92556048D01*
X147217354Y-92577593D01*
X147215147Y-92600000D01*
X147215147Y-92900000D01*
X147217354Y-92922407D01*
X147223890Y-92943952D01*
X147234503Y-92963809D01*
X147248787Y-92981213D01*
X147266191Y-92995497D01*
X147274616Y-93000000D01*
X147266191Y-93004503D01*
X147248787Y-93018787D01*
X147234503Y-93036191D01*
X147223890Y-93056048D01*
X147217354Y-93077593D01*
X147215147Y-93100000D01*
X147215147Y-93400000D01*
X147217354Y-93422407D01*
X147223890Y-93443952D01*
X147234503Y-93463809D01*
X147248787Y-93481213D01*
X147266191Y-93495497D01*
X147274616Y-93500000D01*
X147266191Y-93504503D01*
X147248787Y-93518787D01*
X147234503Y-93536191D01*
X147223890Y-93556048D01*
X147217354Y-93577593D01*
X147215147Y-93600000D01*
X147215147Y-93900000D01*
X147217354Y-93922407D01*
X147223890Y-93943952D01*
X147234503Y-93963809D01*
X147248787Y-93981213D01*
X147266191Y-93995497D01*
X147274616Y-94000000D01*
X147266191Y-94004503D01*
X147248787Y-94018787D01*
X147234503Y-94036191D01*
X147223890Y-94056048D01*
X147217354Y-94077593D01*
X147215455Y-94096868D01*
X147215400Y-94096863D01*
X147207918Y-94097600D01*
X147207916Y-94097600D01*
X147185524Y-94099805D01*
X147156797Y-94108520D01*
X147130321Y-94122671D01*
X147112929Y-94136945D01*
X147107116Y-94141716D01*
X147102347Y-94147527D01*
X146751823Y-94498051D01*
X146746017Y-94502816D01*
X146741252Y-94508622D01*
X146741245Y-94508629D01*
X146726971Y-94526022D01*
X146712820Y-94552498D01*
X146704106Y-94581225D01*
X146701164Y-94611100D01*
X146639300Y-94611100D01*
X146639300Y-91830000D01*
X147985147Y-91830000D01*
X147985147Y-92400000D01*
X147987354Y-92422407D01*
X147993890Y-92443952D01*
X148004503Y-92463809D01*
X148018787Y-92481213D01*
X148036191Y-92495497D01*
X148056048Y-92506110D01*
X148077593Y-92512646D01*
X148100000Y-92514853D01*
X148400000Y-92514853D01*
X148422407Y-92512646D01*
X148443952Y-92506110D01*
X148463809Y-92495497D01*
X148481213Y-92481213D01*
X148495497Y-92463809D01*
X148500000Y-92455384D01*
X148504503Y-92463809D01*
X148518787Y-92481213D01*
X148536191Y-92495497D01*
X148556048Y-92506110D01*
X148577593Y-92512646D01*
X148600000Y-92514853D01*
X148900000Y-92514853D01*
X148922407Y-92512646D01*
X148943952Y-92506110D01*
X148963809Y-92495497D01*
X148981213Y-92481213D01*
X148995497Y-92463809D01*
X149000000Y-92455384D01*
X149004503Y-92463809D01*
X149018787Y-92481213D01*
X149036191Y-92495497D01*
X149056048Y-92506110D01*
X149077593Y-92512646D01*
X149100000Y-92514853D01*
X149400000Y-92514853D01*
X149422407Y-92512646D01*
X149443952Y-92506110D01*
X149463809Y-92495497D01*
X149481213Y-92481213D01*
X149495497Y-92463809D01*
X149500000Y-92455384D01*
X149504503Y-92463809D01*
X149518787Y-92481213D01*
X149536191Y-92495497D01*
X149556048Y-92506110D01*
X149577593Y-92512646D01*
X149600000Y-92514853D01*
X149900000Y-92514853D01*
X149922407Y-92512646D01*
X149943952Y-92506110D01*
X149963809Y-92495497D01*
X149981213Y-92481213D01*
X149995497Y-92463809D01*
X150000000Y-92455384D01*
X150004503Y-92463809D01*
X150018787Y-92481213D01*
X150036191Y-92495497D01*
X150056048Y-92506110D01*
X150077593Y-92512646D01*
X150100000Y-92514853D01*
X150400000Y-92514853D01*
X150422407Y-92512646D01*
X150443952Y-92506110D01*
X150463809Y-92495497D01*
X150481213Y-92481213D01*
X150495497Y-92463809D01*
X150500000Y-92455384D01*
X150504503Y-92463809D01*
X150518787Y-92481213D01*
X150536191Y-92495497D01*
X150556048Y-92506110D01*
X150577593Y-92512646D01*
X150600000Y-92514853D01*
X150900000Y-92514853D01*
X150922407Y-92512646D01*
X150943952Y-92506110D01*
X150963809Y-92495497D01*
X150981213Y-92481213D01*
X150995497Y-92463809D01*
X151000000Y-92455384D01*
X151004503Y-92463809D01*
X151018787Y-92481213D01*
X151036191Y-92495497D01*
X151056048Y-92506110D01*
X151077593Y-92512646D01*
X151100000Y-92514853D01*
X151400000Y-92514853D01*
X151422407Y-92512646D01*
X151443952Y-92506110D01*
X151463809Y-92495497D01*
X151481213Y-92481213D01*
X151495497Y-92463809D01*
X151500000Y-92455384D01*
X151504503Y-92463809D01*
X151518787Y-92481213D01*
X151536191Y-92495497D01*
X151556048Y-92506110D01*
X151577593Y-92512646D01*
X151600000Y-92514853D01*
X151900000Y-92514853D01*
X151922407Y-92512646D01*
X151943952Y-92506110D01*
X151963809Y-92495497D01*
X151981213Y-92481213D01*
X151995497Y-92463809D01*
X152006110Y-92443952D01*
X152012646Y-92422407D01*
X152014853Y-92400000D01*
X152014853Y-91830000D01*
X152012646Y-91807593D01*
X152006110Y-91786048D01*
X151995497Y-91766191D01*
X151981213Y-91748787D01*
X151963809Y-91734503D01*
X151943952Y-91723890D01*
X151922407Y-91717354D01*
X151900000Y-91715147D01*
X151600000Y-91715147D01*
X151577593Y-91717354D01*
X151556048Y-91723890D01*
X151536191Y-91734503D01*
X151518787Y-91748787D01*
X151504503Y-91766191D01*
X151500000Y-91774616D01*
X151495497Y-91766191D01*
X151481213Y-91748787D01*
X151463809Y-91734503D01*
X151443952Y-91723890D01*
X151422407Y-91717354D01*
X151400000Y-91715147D01*
X151100000Y-91715147D01*
X151077593Y-91717354D01*
X151056048Y-91723890D01*
X151036191Y-91734503D01*
X151018787Y-91748787D01*
X151004503Y-91766191D01*
X151000000Y-91774616D01*
X150995497Y-91766191D01*
X150981213Y-91748787D01*
X150963809Y-91734503D01*
X150943952Y-91723890D01*
X150922407Y-91717354D01*
X150900000Y-91715147D01*
X150600000Y-91715147D01*
X150577593Y-91717354D01*
X150556048Y-91723890D01*
X150536191Y-91734503D01*
X150518787Y-91748787D01*
X150504503Y-91766191D01*
X150500000Y-91774616D01*
X150495497Y-91766191D01*
X150481213Y-91748787D01*
X150463809Y-91734503D01*
X150443952Y-91723890D01*
X150422407Y-91717354D01*
X150400000Y-91715147D01*
X150100000Y-91715147D01*
X150077593Y-91717354D01*
X150056048Y-91723890D01*
X150036191Y-91734503D01*
X150018787Y-91748787D01*
X150004503Y-91766191D01*
X150000000Y-91774616D01*
X149995497Y-91766191D01*
X149981213Y-91748787D01*
X149963809Y-91734503D01*
X149943952Y-91723890D01*
X149922407Y-91717354D01*
X149900000Y-91715147D01*
X149600000Y-91715147D01*
X149577593Y-91717354D01*
X149556048Y-91723890D01*
X149536191Y-91734503D01*
X149518787Y-91748787D01*
X149504503Y-91766191D01*
X149500000Y-91774616D01*
X149495497Y-91766191D01*
X149481213Y-91748787D01*
X149463809Y-91734503D01*
X149443952Y-91723890D01*
X149422407Y-91717354D01*
X149400000Y-91715147D01*
X149100000Y-91715147D01*
X149077593Y-91717354D01*
X149056048Y-91723890D01*
X149036191Y-91734503D01*
X149018787Y-91748787D01*
X149004503Y-91766191D01*
X149000000Y-91774616D01*
X148995497Y-91766191D01*
X148981213Y-91748787D01*
X148963809Y-91734503D01*
X148943952Y-91723890D01*
X148922407Y-91717354D01*
X148900000Y-91715147D01*
X148600000Y-91715147D01*
X148577593Y-91717354D01*
X148556048Y-91723890D01*
X148536191Y-91734503D01*
X148518787Y-91748787D01*
X148504503Y-91766191D01*
X148500000Y-91774616D01*
X148495497Y-91766191D01*
X148481213Y-91748787D01*
X148463809Y-91734503D01*
X148443952Y-91723890D01*
X148422407Y-91717354D01*
X148400000Y-91715147D01*
X148100000Y-91715147D01*
X148077593Y-91717354D01*
X148056048Y-91723890D01*
X148036191Y-91734503D01*
X148018787Y-91748787D01*
X148004503Y-91766191D01*
X147993890Y-91786048D01*
X147987354Y-91807593D01*
X147985147Y-91830000D01*
X146639300Y-91830000D01*
X146639300Y-91639300D01*
X153360700Y-91639300D01*
X153360701Y-105860700D01*
%TA.AperFunction,Conductor*%
D17*
G36*
X153360701Y-105860700D02*
G01*
X146639300Y-105860700D01*
X146639300Y-104400000D01*
X147195147Y-104400000D01*
X147195147Y-105400000D01*
X147197354Y-105422407D01*
X147203890Y-105443952D01*
X147214503Y-105463809D01*
X147228787Y-105481213D01*
X147246191Y-105495497D01*
X147266048Y-105506110D01*
X147287593Y-105512646D01*
X147310000Y-105514853D01*
X147610000Y-105514853D01*
X147632407Y-105512646D01*
X147653952Y-105506110D01*
X147673809Y-105495497D01*
X147691213Y-105481213D01*
X147705497Y-105463809D01*
X147716110Y-105443952D01*
X147722646Y-105422407D01*
X147724853Y-105400000D01*
X147724853Y-104400000D01*
X152275147Y-104400000D01*
X152275147Y-105400000D01*
X152277354Y-105422407D01*
X152283890Y-105443952D01*
X152294503Y-105463809D01*
X152308787Y-105481213D01*
X152326191Y-105495497D01*
X152346048Y-105506110D01*
X152367593Y-105512646D01*
X152390000Y-105514853D01*
X152690000Y-105514853D01*
X152712407Y-105512646D01*
X152733952Y-105506110D01*
X152753809Y-105495497D01*
X152771213Y-105481213D01*
X152785497Y-105463809D01*
X152796110Y-105443952D01*
X152802646Y-105422407D01*
X152804853Y-105400000D01*
X152804853Y-104400000D01*
X152802646Y-104377593D01*
X152796110Y-104356048D01*
X152785497Y-104336191D01*
X152771213Y-104318787D01*
X152753809Y-104304503D01*
X152733952Y-104293890D01*
X152712407Y-104287354D01*
X152690000Y-104285147D01*
X152390000Y-104285147D01*
X152367593Y-104287354D01*
X152346048Y-104293890D01*
X152326191Y-104304503D01*
X152308787Y-104318787D01*
X152294503Y-104336191D01*
X152283890Y-104356048D01*
X152277354Y-104377593D01*
X152275147Y-104400000D01*
X147724853Y-104400000D01*
X147722646Y-104377593D01*
X147716110Y-104356048D01*
X147705497Y-104336191D01*
X147691213Y-104318787D01*
X147673809Y-104304503D01*
X147653952Y-104293890D01*
X147632407Y-104287354D01*
X147610000Y-104285147D01*
X147310000Y-104285147D01*
X147287593Y-104287354D01*
X147266048Y-104293890D01*
X147246191Y-104304503D01*
X147228787Y-104318787D01*
X147214503Y-104336191D01*
X147203890Y-104356048D01*
X147197354Y-104377593D01*
X147195147Y-104400000D01*
X146639300Y-104400000D01*
X146639300Y-94611100D01*
X146701164Y-94611100D01*
X146701901Y-94618584D01*
X146701900Y-100382226D01*
X146701164Y-100389700D01*
X146701900Y-100397174D01*
X146701900Y-100397183D01*
X146704105Y-100419575D01*
X146706941Y-100428922D01*
X146712820Y-100448302D01*
X146726971Y-100474778D01*
X146741245Y-100492171D01*
X146741248Y-100492174D01*
X146746016Y-100497984D01*
X146751827Y-100502753D01*
X148047521Y-101798447D01*
X148036191Y-101804503D01*
X148018787Y-101818787D01*
X148004503Y-101836191D01*
X147993890Y-101856048D01*
X147987354Y-101877593D01*
X147985147Y-101900000D01*
X147985147Y-102600000D01*
X147987354Y-102622407D01*
X147993890Y-102643952D01*
X148004503Y-102663809D01*
X148018787Y-102681213D01*
X148036191Y-102695497D01*
X148056048Y-102706110D01*
X148077593Y-102712646D01*
X148100000Y-102714853D01*
X148400000Y-102714853D01*
X148422407Y-102712646D01*
X148443952Y-102706110D01*
X148463809Y-102695497D01*
X148481213Y-102681213D01*
X148495497Y-102663809D01*
X148500000Y-102655384D01*
X148504503Y-102663809D01*
X148518787Y-102681213D01*
X148536191Y-102695497D01*
X148556048Y-102706110D01*
X148577593Y-102712646D01*
X148600000Y-102714853D01*
X148900000Y-102714853D01*
X148922407Y-102712646D01*
X148943952Y-102706110D01*
X148963809Y-102695497D01*
X148981213Y-102681213D01*
X148995497Y-102663809D01*
X149000000Y-102655384D01*
X149004503Y-102663809D01*
X149018787Y-102681213D01*
X149036191Y-102695497D01*
X149056048Y-102706110D01*
X149077593Y-102712646D01*
X149100000Y-102714853D01*
X149400000Y-102714853D01*
X149422407Y-102712646D01*
X149443952Y-102706110D01*
X149463809Y-102695497D01*
X149481213Y-102681213D01*
X149495497Y-102663809D01*
X149500000Y-102655384D01*
X149504503Y-102663809D01*
X149518787Y-102681213D01*
X149536191Y-102695497D01*
X149556048Y-102706110D01*
X149577593Y-102712646D01*
X149600000Y-102714853D01*
X149900000Y-102714853D01*
X149922407Y-102712646D01*
X149943952Y-102706110D01*
X149963809Y-102695497D01*
X149981213Y-102681213D01*
X149995497Y-102663809D01*
X150000000Y-102655384D01*
X150004503Y-102663809D01*
X150018787Y-102681213D01*
X150036191Y-102695497D01*
X150056048Y-102706110D01*
X150077593Y-102712646D01*
X150100000Y-102714853D01*
X150400000Y-102714853D01*
X150422407Y-102712646D01*
X150443952Y-102706110D01*
X150463809Y-102695497D01*
X150481213Y-102681213D01*
X150495497Y-102663809D01*
X150500000Y-102655384D01*
X150504503Y-102663809D01*
X150518787Y-102681213D01*
X150536191Y-102695497D01*
X150556048Y-102706110D01*
X150577593Y-102712646D01*
X150600000Y-102714853D01*
X150900000Y-102714853D01*
X150922407Y-102712646D01*
X150943952Y-102706110D01*
X150963809Y-102695497D01*
X150981213Y-102681213D01*
X150983571Y-102678341D01*
X151000739Y-102699261D01*
X151022011Y-102716718D01*
X151046280Y-102729691D01*
X151072614Y-102737679D01*
X151100000Y-102740376D01*
X151202375Y-102739700D01*
X151237300Y-102704775D01*
X151237300Y-102262700D01*
X151217300Y-102262700D01*
X151217300Y-102237300D01*
X151237300Y-102237300D01*
X151237300Y-101795225D01*
X151202375Y-101760300D01*
X151100000Y-101759624D01*
X151072614Y-101762321D01*
X151046280Y-101770309D01*
X151022011Y-101783282D01*
X151000739Y-101800739D01*
X150983571Y-101821659D01*
X150981213Y-101818787D01*
X150963809Y-101804503D01*
X150943952Y-101793890D01*
X150922407Y-101787354D01*
X150903130Y-101785455D01*
X150903136Y-101785399D01*
X150902400Y-101777925D01*
X150902400Y-101777916D01*
X150900195Y-101755524D01*
X150891480Y-101726797D01*
X150884892Y-101714472D01*
X150877329Y-101700321D01*
X150863054Y-101682928D01*
X150863053Y-101682927D01*
X150858284Y-101677116D01*
X150852473Y-101672347D01*
X150710353Y-101530227D01*
X150705584Y-101524416D01*
X150682378Y-101505371D01*
X150655903Y-101491220D01*
X150651813Y-101489979D01*
X150800000Y-101490376D01*
X150827386Y-101487679D01*
X150853720Y-101479691D01*
X150877989Y-101466718D01*
X150899261Y-101449261D01*
X150916718Y-101427989D01*
X150929691Y-101403720D01*
X150937679Y-101377386D01*
X150940376Y-101350000D01*
X150939700Y-101047625D01*
X150904775Y-101012700D01*
X150512700Y-101012700D01*
X150512700Y-101032700D01*
X150487300Y-101032700D01*
X150487300Y-101012700D01*
X150095225Y-101012700D01*
X150060300Y-101047625D01*
X150060038Y-101164911D01*
X149914853Y-101019727D01*
X149914853Y-100650000D01*
X150059624Y-100650000D01*
X150060300Y-100952375D01*
X150095225Y-100987300D01*
X150487300Y-100987300D01*
X150487300Y-100545225D01*
X150512700Y-100545225D01*
X150512700Y-100987300D01*
X150904775Y-100987300D01*
X150939700Y-100952375D01*
X150940376Y-100650000D01*
X150937679Y-100622614D01*
X150929691Y-100596280D01*
X150916718Y-100572011D01*
X150899261Y-100550739D01*
X150877989Y-100533282D01*
X150853720Y-100520309D01*
X150827386Y-100512321D01*
X150800000Y-100509624D01*
X150547625Y-100510300D01*
X150512700Y-100545225D01*
X150487300Y-100545225D01*
X150452375Y-100510300D01*
X150200000Y-100509624D01*
X150172614Y-100512321D01*
X150146280Y-100520309D01*
X150122011Y-100533282D01*
X150100739Y-100550739D01*
X150083282Y-100572011D01*
X150070309Y-100596280D01*
X150062321Y-100622614D01*
X150059624Y-100650000D01*
X149914853Y-100650000D01*
X149912646Y-100627593D01*
X149906110Y-100606048D01*
X149895497Y-100586191D01*
X149881213Y-100568787D01*
X149863809Y-100554503D01*
X149843952Y-100543890D01*
X149832000Y-100540264D01*
X149832000Y-100312686D01*
X149851916Y-100310725D01*
X149892221Y-100298498D01*
X149929366Y-100278644D01*
X149960195Y-100253343D01*
X149960309Y-100253720D01*
X149973282Y-100277989D01*
X149990739Y-100299261D01*
X150012011Y-100316718D01*
X150036280Y-100329691D01*
X150062614Y-100337679D01*
X150090000Y-100340376D01*
X150272375Y-100339700D01*
X150307300Y-100304775D01*
X150307300Y-100012700D01*
X150332700Y-100012700D01*
X150332700Y-100304775D01*
X150367625Y-100339700D01*
X150550000Y-100340376D01*
X150577386Y-100337679D01*
X150603720Y-100329691D01*
X150627989Y-100316718D01*
X150649261Y-100299261D01*
X150666718Y-100277989D01*
X150679691Y-100253720D01*
X150687679Y-100227386D01*
X150690376Y-100200000D01*
X150689700Y-100047625D01*
X150654775Y-100012700D01*
X150332700Y-100012700D01*
X150307300Y-100012700D01*
X150287300Y-100012700D01*
X150287300Y-99987300D01*
X150307300Y-99987300D01*
X150307300Y-99695225D01*
X150332700Y-99695225D01*
X150332700Y-99987300D01*
X150654775Y-99987300D01*
X150689700Y-99952375D01*
X150690376Y-99800000D01*
X150687679Y-99772614D01*
X150679691Y-99746280D01*
X150666718Y-99722011D01*
X150649261Y-99700739D01*
X150627989Y-99683282D01*
X150603720Y-99670309D01*
X150577386Y-99662321D01*
X150550000Y-99659624D01*
X150367625Y-99660300D01*
X150332700Y-99695225D01*
X150307300Y-99695225D01*
X150272375Y-99660300D01*
X150090000Y-99659624D01*
X150062614Y-99662321D01*
X150036280Y-99670309D01*
X150012011Y-99683282D01*
X149990739Y-99700739D01*
X149973282Y-99722011D01*
X149960309Y-99746280D01*
X149960195Y-99746657D01*
X149929366Y-99721356D01*
X149892221Y-99701502D01*
X149851916Y-99689275D01*
X149832400Y-99687353D01*
X149832400Y-99312647D01*
X149851916Y-99310725D01*
X149892221Y-99298498D01*
X149929366Y-99278644D01*
X149961924Y-99251924D01*
X149988644Y-99219366D01*
X150000000Y-99198120D01*
X150011356Y-99219366D01*
X150038076Y-99251924D01*
X150070634Y-99278644D01*
X150107779Y-99298498D01*
X150148084Y-99310725D01*
X150190000Y-99314853D01*
X150450000Y-99314853D01*
X150491916Y-99310725D01*
X150532221Y-99298498D01*
X150569366Y-99278644D01*
X150601924Y-99251924D01*
X150628644Y-99219366D01*
X150648498Y-99182221D01*
X150660725Y-99141916D01*
X150664853Y-99100000D01*
X150664853Y-99036673D01*
X150754524Y-98947002D01*
X151461900Y-98947002D01*
X151461900Y-99052998D01*
X151482579Y-99156958D01*
X151523142Y-99254886D01*
X151582030Y-99343019D01*
X151656981Y-99417970D01*
X151745114Y-99476858D01*
X151843042Y-99517421D01*
X151947002Y-99538100D01*
X152052998Y-99538100D01*
X152156958Y-99517421D01*
X152254886Y-99476858D01*
X152343019Y-99417970D01*
X152417970Y-99343019D01*
X152476858Y-99254886D01*
X152517421Y-99156958D01*
X152538100Y-99052998D01*
X152538100Y-98947002D01*
X152517421Y-98843042D01*
X152476858Y-98745114D01*
X152417970Y-98656981D01*
X152343019Y-98582030D01*
X152254886Y-98523142D01*
X152156958Y-98482579D01*
X152052998Y-98461900D01*
X151947002Y-98461900D01*
X151843042Y-98482579D01*
X151745114Y-98523142D01*
X151656981Y-98582030D01*
X151582030Y-98656981D01*
X151523142Y-98745114D01*
X151482579Y-98843042D01*
X151461900Y-98947002D01*
X150754524Y-98947002D01*
X152953901Y-96747626D01*
X152953900Y-100365974D01*
X151647523Y-101672351D01*
X151641717Y-101677116D01*
X151636952Y-101682922D01*
X151636945Y-101682929D01*
X151622671Y-101700322D01*
X151608520Y-101726798D01*
X151604217Y-101740984D01*
X151599807Y-101755523D01*
X151599806Y-101755525D01*
X151596864Y-101785400D01*
X151596869Y-101785455D01*
X151577593Y-101787354D01*
X151556048Y-101793890D01*
X151536191Y-101804503D01*
X151518787Y-101818787D01*
X151516429Y-101821659D01*
X151499261Y-101800739D01*
X151477989Y-101783282D01*
X151453720Y-101770309D01*
X151427386Y-101762321D01*
X151400000Y-101759624D01*
X151297625Y-101760300D01*
X151262700Y-101795225D01*
X151262700Y-102237300D01*
X151282700Y-102237300D01*
X151282700Y-102262700D01*
X151262700Y-102262700D01*
X151262700Y-102704775D01*
X151297625Y-102739700D01*
X151400000Y-102740376D01*
X151427386Y-102737679D01*
X151453720Y-102729691D01*
X151477989Y-102716718D01*
X151499261Y-102699261D01*
X151516429Y-102678341D01*
X151518787Y-102681213D01*
X151536191Y-102695497D01*
X151556048Y-102706110D01*
X151577593Y-102712646D01*
X151600000Y-102714853D01*
X151900000Y-102714853D01*
X151922407Y-102712646D01*
X151943952Y-102706110D01*
X151963809Y-102695497D01*
X151981213Y-102681213D01*
X151995497Y-102663809D01*
X152006110Y-102643952D01*
X152012646Y-102622407D01*
X152014853Y-102600000D01*
X152014853Y-101900000D01*
X152012646Y-101877593D01*
X152006110Y-101856048D01*
X151995497Y-101836191D01*
X151981213Y-101818787D01*
X151963809Y-101804503D01*
X151952479Y-101798447D01*
X153208774Y-100542152D01*
X153214584Y-100537384D01*
X153219676Y-100531180D01*
X153233629Y-100514179D01*
X153247780Y-100487703D01*
X153251701Y-100474777D01*
X153256495Y-100458976D01*
X153258700Y-100436584D01*
X153258700Y-100436574D01*
X153259436Y-100429100D01*
X153258700Y-100421626D01*
X153258700Y-94079182D01*
X153259437Y-94071700D01*
X153258700Y-94064216D01*
X153256495Y-94041824D01*
X153247780Y-94013097D01*
X153247539Y-94012646D01*
X153233629Y-93986621D01*
X153219355Y-93969229D01*
X153219353Y-93969227D01*
X153214584Y-93963416D01*
X153208773Y-93958647D01*
X152897653Y-93647527D01*
X152892884Y-93641716D01*
X152869678Y-93622671D01*
X152843203Y-93608520D01*
X152814476Y-93599805D01*
X152792084Y-93597600D01*
X152792074Y-93597600D01*
X152784600Y-93596864D01*
X152784545Y-93596869D01*
X152782646Y-93577593D01*
X152776110Y-93556048D01*
X152765497Y-93536191D01*
X152751213Y-93518787D01*
X152733809Y-93504503D01*
X152725384Y-93500000D01*
X152733809Y-93495497D01*
X152751213Y-93481213D01*
X152765497Y-93463809D01*
X152776110Y-93443952D01*
X152782646Y-93422407D01*
X152784853Y-93400000D01*
X152784853Y-93100000D01*
X152782646Y-93077593D01*
X152776110Y-93056048D01*
X152765497Y-93036191D01*
X152751213Y-93018787D01*
X152733809Y-93004503D01*
X152725384Y-93000000D01*
X152733809Y-92995497D01*
X152751213Y-92981213D01*
X152765497Y-92963809D01*
X152776110Y-92943952D01*
X152782646Y-92922407D01*
X152784853Y-92900000D01*
X152784853Y-92600000D01*
X152782646Y-92577593D01*
X152776110Y-92556048D01*
X152765497Y-92536191D01*
X152751213Y-92518787D01*
X152733809Y-92504503D01*
X152713952Y-92493890D01*
X152692407Y-92487354D01*
X152670000Y-92485147D01*
X152100000Y-92485147D01*
X152077593Y-92487354D01*
X152056048Y-92493890D01*
X152036191Y-92504503D01*
X152018787Y-92518787D01*
X152004503Y-92536191D01*
X151993890Y-92556048D01*
X151987354Y-92577593D01*
X151985147Y-92600000D01*
X151985147Y-92900000D01*
X151987354Y-92922407D01*
X151993890Y-92943952D01*
X152004503Y-92963809D01*
X152018787Y-92981213D01*
X152036191Y-92995497D01*
X152044616Y-93000000D01*
X152036191Y-93004503D01*
X152018787Y-93018787D01*
X152004503Y-93036191D01*
X151993890Y-93056048D01*
X151987354Y-93077593D01*
X151985147Y-93100000D01*
X151985147Y-93400000D01*
X151987354Y-93422407D01*
X151993890Y-93443952D01*
X152004503Y-93463809D01*
X152018787Y-93481213D01*
X152036191Y-93495497D01*
X152044616Y-93500000D01*
X152036191Y-93504503D01*
X152018787Y-93518787D01*
X152004503Y-93536191D01*
X151993890Y-93556048D01*
X151987354Y-93577593D01*
X151985147Y-93600000D01*
X151985147Y-93900000D01*
X151987354Y-93922407D01*
X151993890Y-93943952D01*
X152004503Y-93963809D01*
X152018787Y-93981213D01*
X152036191Y-93995497D01*
X152044616Y-94000000D01*
X152036191Y-94004503D01*
X152018787Y-94018787D01*
X152004503Y-94036191D01*
X151993890Y-94056048D01*
X151987354Y-94077593D01*
X151985147Y-94100000D01*
X151985147Y-94400000D01*
X151987354Y-94422407D01*
X151993890Y-94443952D01*
X152004503Y-94463809D01*
X152018787Y-94481213D01*
X152021659Y-94483571D01*
X152000739Y-94500739D01*
X151983282Y-94522011D01*
X151970309Y-94546280D01*
X151962321Y-94572614D01*
X151959624Y-94600000D01*
X151960300Y-94702375D01*
X151995225Y-94737300D01*
X152372300Y-94737300D01*
X152372300Y-94717300D01*
X152397700Y-94717300D01*
X152397700Y-94737300D01*
X152417700Y-94737300D01*
X152417700Y-94762700D01*
X152397700Y-94762700D01*
X152397700Y-95237300D01*
X152417700Y-95237300D01*
X152417700Y-95262700D01*
X152397700Y-95262700D01*
X152397700Y-95282700D01*
X152372300Y-95282700D01*
X152372300Y-95262700D01*
X151995225Y-95262700D01*
X151960300Y-95297625D01*
X151959624Y-95400000D01*
X151962321Y-95427386D01*
X151970309Y-95453720D01*
X151983282Y-95477989D01*
X152000739Y-95499261D01*
X152021659Y-95516429D01*
X152018787Y-95518787D01*
X152004503Y-95536191D01*
X151993890Y-95556048D01*
X151987354Y-95577593D01*
X151985147Y-95600000D01*
X151985147Y-95900000D01*
X151987354Y-95922407D01*
X151993890Y-95943952D01*
X152004503Y-95963809D01*
X152018787Y-95981213D01*
X152021659Y-95983571D01*
X152000739Y-96000739D01*
X151983282Y-96022011D01*
X151970309Y-96046280D01*
X151962321Y-96072614D01*
X151959624Y-96100000D01*
X151960300Y-96202375D01*
X151995225Y-96237300D01*
X152372300Y-96237300D01*
X152372300Y-96217300D01*
X152397700Y-96217300D01*
X152397700Y-96237300D01*
X152417700Y-96237300D01*
X152417700Y-96262700D01*
X152397700Y-96262700D01*
X152397700Y-96504775D01*
X152432625Y-96539700D01*
X152670000Y-96540376D01*
X152697386Y-96537679D01*
X152723720Y-96529691D01*
X152747989Y-96516718D01*
X152769261Y-96499261D01*
X152786718Y-96477989D01*
X152799691Y-96453720D01*
X152801100Y-96449075D01*
X152801100Y-96469373D01*
X150556171Y-98714303D01*
X150532221Y-98701502D01*
X150491916Y-98689275D01*
X150450000Y-98685147D01*
X150190000Y-98685147D01*
X150148084Y-98689275D01*
X150107779Y-98701502D01*
X150070634Y-98721356D01*
X150038076Y-98748076D01*
X150011356Y-98780634D01*
X150000000Y-98801880D01*
X149988644Y-98780634D01*
X149961924Y-98748076D01*
X149929366Y-98721356D01*
X149892221Y-98701502D01*
X149851916Y-98689275D01*
X149832400Y-98687353D01*
X149832400Y-98312647D01*
X149851916Y-98310725D01*
X149892221Y-98298498D01*
X149929366Y-98278644D01*
X149960195Y-98253343D01*
X149960309Y-98253720D01*
X149973282Y-98277989D01*
X149990739Y-98299261D01*
X150012011Y-98316718D01*
X150036280Y-98329691D01*
X150062614Y-98337679D01*
X150090000Y-98340376D01*
X150272375Y-98339700D01*
X150307300Y-98304775D01*
X150307300Y-98012700D01*
X150332700Y-98012700D01*
X150332700Y-98304775D01*
X150367625Y-98339700D01*
X150550000Y-98340376D01*
X150577386Y-98337679D01*
X150603720Y-98329691D01*
X150627989Y-98316718D01*
X150649261Y-98299261D01*
X150666718Y-98277989D01*
X150679691Y-98253720D01*
X150687679Y-98227386D01*
X150690376Y-98200000D01*
X150689700Y-98047625D01*
X150654775Y-98012700D01*
X150332700Y-98012700D01*
X150307300Y-98012700D01*
X150287300Y-98012700D01*
X150287300Y-97987300D01*
X150307300Y-97987300D01*
X150307300Y-97695225D01*
X150332700Y-97695225D01*
X150332700Y-97987300D01*
X150654775Y-97987300D01*
X150689700Y-97952375D01*
X150690376Y-97800000D01*
X150687679Y-97772614D01*
X150679691Y-97746280D01*
X150666718Y-97722011D01*
X150649261Y-97700739D01*
X150627989Y-97683282D01*
X150603720Y-97670309D01*
X150577386Y-97662321D01*
X150550000Y-97659624D01*
X150367625Y-97660300D01*
X150332700Y-97695225D01*
X150307300Y-97695225D01*
X150272375Y-97660300D01*
X150235363Y-97660163D01*
X150458526Y-97437000D01*
X151242516Y-97437000D01*
X151250000Y-97437737D01*
X151257484Y-97437000D01*
X151279876Y-97434795D01*
X151308603Y-97426080D01*
X151335078Y-97411929D01*
X151358284Y-97392884D01*
X151377329Y-97369678D01*
X151391480Y-97343203D01*
X151400195Y-97314476D01*
X151403137Y-97284600D01*
X151403132Y-97284545D01*
X151422407Y-97282646D01*
X151443952Y-97276110D01*
X151463809Y-97265497D01*
X151481213Y-97251213D01*
X151495497Y-97233809D01*
X151500000Y-97225384D01*
X151504503Y-97233809D01*
X151518787Y-97251213D01*
X151536191Y-97265497D01*
X151556048Y-97276110D01*
X151577593Y-97282646D01*
X151600000Y-97284853D01*
X151900000Y-97284853D01*
X151922407Y-97282646D01*
X151943952Y-97276110D01*
X151963809Y-97265497D01*
X151981213Y-97251213D01*
X151995497Y-97233809D01*
X152006110Y-97213952D01*
X152012646Y-97192407D01*
X152014853Y-97170000D01*
X152014853Y-96600000D01*
X152012646Y-96577593D01*
X152006110Y-96556048D01*
X151995497Y-96536191D01*
X151981213Y-96518787D01*
X151963809Y-96504503D01*
X151943952Y-96493890D01*
X151922407Y-96487354D01*
X151900000Y-96485147D01*
X151600000Y-96485147D01*
X151577593Y-96487354D01*
X151556048Y-96493890D01*
X151536191Y-96504503D01*
X151518787Y-96518787D01*
X151504503Y-96536191D01*
X151500000Y-96544616D01*
X151495497Y-96536191D01*
X151481213Y-96518787D01*
X151463809Y-96504503D01*
X151443952Y-96493890D01*
X151422407Y-96487354D01*
X151400000Y-96485147D01*
X151100000Y-96485147D01*
X151077593Y-96487354D01*
X151056048Y-96493890D01*
X151036191Y-96504503D01*
X151018787Y-96518787D01*
X151004503Y-96536191D01*
X151000000Y-96544616D01*
X150995497Y-96536191D01*
X150981213Y-96518787D01*
X150963809Y-96504503D01*
X150943952Y-96493890D01*
X150922407Y-96487354D01*
X150900000Y-96485147D01*
X150600000Y-96485147D01*
X150577593Y-96487354D01*
X150556048Y-96493890D01*
X150536191Y-96504503D01*
X150518787Y-96518787D01*
X150504503Y-96536191D01*
X150500000Y-96544616D01*
X150495497Y-96536191D01*
X150481213Y-96518787D01*
X150463809Y-96504503D01*
X150443952Y-96493890D01*
X150422407Y-96487354D01*
X150400000Y-96485147D01*
X150100000Y-96485147D01*
X150077593Y-96487354D01*
X150056048Y-96493890D01*
X150036191Y-96504503D01*
X150018787Y-96518787D01*
X150004503Y-96536191D01*
X150000000Y-96544616D01*
X149995497Y-96536191D01*
X149981213Y-96518787D01*
X149963809Y-96504503D01*
X149943952Y-96493890D01*
X149922407Y-96487354D01*
X149900000Y-96485147D01*
X149600000Y-96485147D01*
X149577593Y-96487354D01*
X149556048Y-96493890D01*
X149536191Y-96504503D01*
X149518787Y-96518787D01*
X149504503Y-96536191D01*
X149500000Y-96544616D01*
X149495497Y-96536191D01*
X149481213Y-96518787D01*
X149463809Y-96504503D01*
X149443952Y-96493890D01*
X149422407Y-96487354D01*
X149400000Y-96485147D01*
X149100000Y-96485147D01*
X149077593Y-96487354D01*
X149056048Y-96493890D01*
X149036191Y-96504503D01*
X149018787Y-96518787D01*
X149004503Y-96536191D01*
X149000000Y-96544616D01*
X148995497Y-96536191D01*
X148981213Y-96518787D01*
X148963809Y-96504503D01*
X148943952Y-96493890D01*
X148922407Y-96487354D01*
X148900000Y-96485147D01*
X148600000Y-96485147D01*
X148577593Y-96487354D01*
X148556048Y-96493890D01*
X148536191Y-96504503D01*
X148518787Y-96518787D01*
X148504503Y-96536191D01*
X148500000Y-96544616D01*
X148495497Y-96536191D01*
X148481213Y-96518787D01*
X148463809Y-96504503D01*
X148443952Y-96493890D01*
X148422407Y-96487354D01*
X148400000Y-96485147D01*
X148167000Y-96485147D01*
X148167000Y-96435976D01*
X148172614Y-96437679D01*
X148200000Y-96440376D01*
X149952375Y-96439700D01*
X149987300Y-96404775D01*
X149987300Y-94512700D01*
X150012700Y-94512700D01*
X150012700Y-96404775D01*
X150047625Y-96439700D01*
X151800000Y-96440376D01*
X151827386Y-96437679D01*
X151853720Y-96429691D01*
X151877989Y-96416718D01*
X151898360Y-96400000D01*
X151959624Y-96400000D01*
X151962321Y-96427386D01*
X151970309Y-96453720D01*
X151983282Y-96477989D01*
X152000739Y-96499261D01*
X152022011Y-96516718D01*
X152046280Y-96529691D01*
X152072614Y-96537679D01*
X152100000Y-96540376D01*
X152337375Y-96539700D01*
X152372300Y-96504775D01*
X152372300Y-96262700D01*
X151995225Y-96262700D01*
X151960300Y-96297625D01*
X151959624Y-96400000D01*
X151898360Y-96400000D01*
X151899261Y-96399261D01*
X151916718Y-96377989D01*
X151929691Y-96353720D01*
X151937679Y-96327386D01*
X151940376Y-96300000D01*
X151939836Y-94900000D01*
X151959624Y-94900000D01*
X151962321Y-94927386D01*
X151970309Y-94953720D01*
X151983282Y-94977989D01*
X152000739Y-94999261D01*
X152001639Y-95000000D01*
X152000739Y-95000739D01*
X151983282Y-95022011D01*
X151970309Y-95046280D01*
X151962321Y-95072614D01*
X151959624Y-95100000D01*
X151960300Y-95202375D01*
X151995225Y-95237300D01*
X152372300Y-95237300D01*
X152372300Y-94762700D01*
X151995225Y-94762700D01*
X151960300Y-94797625D01*
X151959624Y-94900000D01*
X151939836Y-94900000D01*
X151939700Y-94547625D01*
X151904775Y-94512700D01*
X150012700Y-94512700D01*
X149987300Y-94512700D01*
X148095225Y-94512700D01*
X148060300Y-94547625D01*
X148059699Y-96104423D01*
X148044476Y-96099805D01*
X148022084Y-96097600D01*
X148014600Y-96096863D01*
X148014545Y-96096868D01*
X148012646Y-96077593D01*
X148006110Y-96056048D01*
X147995497Y-96036191D01*
X147981213Y-96018787D01*
X147963809Y-96004503D01*
X147955384Y-96000000D01*
X147963809Y-95995497D01*
X147981213Y-95981213D01*
X147995497Y-95963809D01*
X148006110Y-95943952D01*
X148012646Y-95922407D01*
X148014853Y-95900000D01*
X148014853Y-95600000D01*
X148012646Y-95577593D01*
X148006110Y-95556048D01*
X147995497Y-95536191D01*
X147981213Y-95518787D01*
X147963809Y-95504503D01*
X147955384Y-95500000D01*
X147963809Y-95495497D01*
X147981213Y-95481213D01*
X147995497Y-95463809D01*
X148006110Y-95443952D01*
X148012646Y-95422407D01*
X148014853Y-95400000D01*
X148014853Y-95100000D01*
X148012646Y-95077593D01*
X148006110Y-95056048D01*
X147995497Y-95036191D01*
X147981213Y-95018787D01*
X147963809Y-95004503D01*
X147955384Y-95000000D01*
X147963809Y-94995497D01*
X147981213Y-94981213D01*
X147995497Y-94963809D01*
X148006110Y-94943952D01*
X148012646Y-94922407D01*
X148014853Y-94900000D01*
X148014853Y-94600000D01*
X148012646Y-94577593D01*
X148006110Y-94556048D01*
X147995497Y-94536191D01*
X147981213Y-94518787D01*
X147963809Y-94504503D01*
X147955384Y-94500000D01*
X147963809Y-94495497D01*
X147981213Y-94481213D01*
X147995497Y-94463809D01*
X148006110Y-94443952D01*
X148012646Y-94422407D01*
X148014853Y-94400000D01*
X148014853Y-94100000D01*
X148012646Y-94077593D01*
X148006110Y-94056048D01*
X147995497Y-94036191D01*
X147981213Y-94018787D01*
X147963809Y-94004503D01*
X147955384Y-94000000D01*
X147963809Y-93995497D01*
X147981213Y-93981213D01*
X147995497Y-93963809D01*
X148006110Y-93943952D01*
X148012646Y-93922407D01*
X148014853Y-93900000D01*
X148014853Y-93600000D01*
X148012646Y-93577593D01*
X148006110Y-93556048D01*
X147995497Y-93536191D01*
X147981213Y-93518787D01*
X147963809Y-93504503D01*
X147955384Y-93500000D01*
X147963809Y-93495497D01*
X147981213Y-93481213D01*
X147995497Y-93463809D01*
X148006110Y-93443952D01*
X148012646Y-93422407D01*
X148014853Y-93400000D01*
X148014853Y-93100000D01*
X148012646Y-93077593D01*
X148006110Y-93056048D01*
X147995497Y-93036191D01*
X147981213Y-93018787D01*
X147963809Y-93004503D01*
X147955384Y-93000000D01*
X147963809Y-92995497D01*
X147981213Y-92981213D01*
X147995497Y-92963809D01*
X148006110Y-92943952D01*
X148012646Y-92922407D01*
X148014853Y-92900000D01*
X148014853Y-92700000D01*
X148059624Y-92700000D01*
X148060300Y-94452375D01*
X148095225Y-94487300D01*
X149987300Y-94487300D01*
X149987300Y-92595225D01*
X150012700Y-92595225D01*
X150012700Y-94487300D01*
X151904775Y-94487300D01*
X151939700Y-94452375D01*
X151940376Y-92700000D01*
X151937679Y-92672614D01*
X151929691Y-92646280D01*
X151916718Y-92622011D01*
X151899261Y-92600739D01*
X151877989Y-92583282D01*
X151853720Y-92570309D01*
X151827386Y-92562321D01*
X151800000Y-92559624D01*
X150047625Y-92560300D01*
X150012700Y-92595225D01*
X149987300Y-92595225D01*
X149952375Y-92560300D01*
X148200000Y-92559624D01*
X148172614Y-92562321D01*
X148146280Y-92570309D01*
X148122011Y-92583282D01*
X148100739Y-92600739D01*
X148083282Y-92622011D01*
X148070309Y-92646280D01*
X148062321Y-92672614D01*
X148059624Y-92700000D01*
X148014853Y-92700000D01*
X148014853Y-92600000D01*
X148012646Y-92577593D01*
X148006110Y-92556048D01*
X147995497Y-92536191D01*
X147981213Y-92518787D01*
X147963809Y-92504503D01*
X147943952Y-92493890D01*
X147922407Y-92487354D01*
X147900000Y-92485147D01*
X147330000Y-92485147D01*
X147307593Y-92487354D01*
X147286048Y-92493890D01*
X147266191Y-92504503D01*
X147248787Y-92518787D01*
X147234503Y-92536191D01*
X147223890Y-92556048D01*
X147217354Y-92577593D01*
X147215147Y-92600000D01*
X147215147Y-92900000D01*
X147217354Y-92922407D01*
X147223890Y-92943952D01*
X147234503Y-92963809D01*
X147248787Y-92981213D01*
X147266191Y-92995497D01*
X147274616Y-93000000D01*
X147266191Y-93004503D01*
X147248787Y-93018787D01*
X147234503Y-93036191D01*
X147223890Y-93056048D01*
X147217354Y-93077593D01*
X147215147Y-93100000D01*
X147215147Y-93400000D01*
X147217354Y-93422407D01*
X147223890Y-93443952D01*
X147234503Y-93463809D01*
X147248787Y-93481213D01*
X147266191Y-93495497D01*
X147274616Y-93500000D01*
X147266191Y-93504503D01*
X147248787Y-93518787D01*
X147234503Y-93536191D01*
X147223890Y-93556048D01*
X147217354Y-93577593D01*
X147215147Y-93600000D01*
X147215147Y-93900000D01*
X147217354Y-93922407D01*
X147223890Y-93943952D01*
X147234503Y-93963809D01*
X147248787Y-93981213D01*
X147266191Y-93995497D01*
X147274616Y-94000000D01*
X147266191Y-94004503D01*
X147248787Y-94018787D01*
X147234503Y-94036191D01*
X147223890Y-94056048D01*
X147217354Y-94077593D01*
X147215455Y-94096868D01*
X147215400Y-94096863D01*
X147207918Y-94097600D01*
X147207916Y-94097600D01*
X147185524Y-94099805D01*
X147156797Y-94108520D01*
X147130321Y-94122671D01*
X147112929Y-94136945D01*
X147107116Y-94141716D01*
X147102347Y-94147527D01*
X146751823Y-94498051D01*
X146746017Y-94502816D01*
X146741252Y-94508622D01*
X146741245Y-94508629D01*
X146726971Y-94526022D01*
X146712820Y-94552498D01*
X146704106Y-94581225D01*
X146701164Y-94611100D01*
X146639300Y-94611100D01*
X146639300Y-91830000D01*
X147985147Y-91830000D01*
X147985147Y-92400000D01*
X147987354Y-92422407D01*
X147993890Y-92443952D01*
X148004503Y-92463809D01*
X148018787Y-92481213D01*
X148036191Y-92495497D01*
X148056048Y-92506110D01*
X148077593Y-92512646D01*
X148100000Y-92514853D01*
X148400000Y-92514853D01*
X148422407Y-92512646D01*
X148443952Y-92506110D01*
X148463809Y-92495497D01*
X148481213Y-92481213D01*
X148495497Y-92463809D01*
X148500000Y-92455384D01*
X148504503Y-92463809D01*
X148518787Y-92481213D01*
X148536191Y-92495497D01*
X148556048Y-92506110D01*
X148577593Y-92512646D01*
X148600000Y-92514853D01*
X148900000Y-92514853D01*
X148922407Y-92512646D01*
X148943952Y-92506110D01*
X148963809Y-92495497D01*
X148981213Y-92481213D01*
X148995497Y-92463809D01*
X149000000Y-92455384D01*
X149004503Y-92463809D01*
X149018787Y-92481213D01*
X149036191Y-92495497D01*
X149056048Y-92506110D01*
X149077593Y-92512646D01*
X149100000Y-92514853D01*
X149400000Y-92514853D01*
X149422407Y-92512646D01*
X149443952Y-92506110D01*
X149463809Y-92495497D01*
X149481213Y-92481213D01*
X149495497Y-92463809D01*
X149500000Y-92455384D01*
X149504503Y-92463809D01*
X149518787Y-92481213D01*
X149536191Y-92495497D01*
X149556048Y-92506110D01*
X149577593Y-92512646D01*
X149600000Y-92514853D01*
X149900000Y-92514853D01*
X149922407Y-92512646D01*
X149943952Y-92506110D01*
X149963809Y-92495497D01*
X149981213Y-92481213D01*
X149995497Y-92463809D01*
X150000000Y-92455384D01*
X150004503Y-92463809D01*
X150018787Y-92481213D01*
X150036191Y-92495497D01*
X150056048Y-92506110D01*
X150077593Y-92512646D01*
X150100000Y-92514853D01*
X150400000Y-92514853D01*
X150422407Y-92512646D01*
X150443952Y-92506110D01*
X150463809Y-92495497D01*
X150481213Y-92481213D01*
X150495497Y-92463809D01*
X150500000Y-92455384D01*
X150504503Y-92463809D01*
X150518787Y-92481213D01*
X150536191Y-92495497D01*
X150556048Y-92506110D01*
X150577593Y-92512646D01*
X150600000Y-92514853D01*
X150900000Y-92514853D01*
X150922407Y-92512646D01*
X150943952Y-92506110D01*
X150963809Y-92495497D01*
X150981213Y-92481213D01*
X150995497Y-92463809D01*
X151000000Y-92455384D01*
X151004503Y-92463809D01*
X151018787Y-92481213D01*
X151036191Y-92495497D01*
X151056048Y-92506110D01*
X151077593Y-92512646D01*
X151100000Y-92514853D01*
X151400000Y-92514853D01*
X151422407Y-92512646D01*
X151443952Y-92506110D01*
X151463809Y-92495497D01*
X151481213Y-92481213D01*
X151495497Y-92463809D01*
X151500000Y-92455384D01*
X151504503Y-92463809D01*
X151518787Y-92481213D01*
X151536191Y-92495497D01*
X151556048Y-92506110D01*
X151577593Y-92512646D01*
X151600000Y-92514853D01*
X151900000Y-92514853D01*
X151922407Y-92512646D01*
X151943952Y-92506110D01*
X151963809Y-92495497D01*
X151981213Y-92481213D01*
X151995497Y-92463809D01*
X152006110Y-92443952D01*
X152012646Y-92422407D01*
X152014853Y-92400000D01*
X152014853Y-91830000D01*
X152012646Y-91807593D01*
X152006110Y-91786048D01*
X151995497Y-91766191D01*
X151981213Y-91748787D01*
X151963809Y-91734503D01*
X151943952Y-91723890D01*
X151922407Y-91717354D01*
X151900000Y-91715147D01*
X151600000Y-91715147D01*
X151577593Y-91717354D01*
X151556048Y-91723890D01*
X151536191Y-91734503D01*
X151518787Y-91748787D01*
X151504503Y-91766191D01*
X151500000Y-91774616D01*
X151495497Y-91766191D01*
X151481213Y-91748787D01*
X151463809Y-91734503D01*
X151443952Y-91723890D01*
X151422407Y-91717354D01*
X151400000Y-91715147D01*
X151100000Y-91715147D01*
X151077593Y-91717354D01*
X151056048Y-91723890D01*
X151036191Y-91734503D01*
X151018787Y-91748787D01*
X151004503Y-91766191D01*
X151000000Y-91774616D01*
X150995497Y-91766191D01*
X150981213Y-91748787D01*
X150963809Y-91734503D01*
X150943952Y-91723890D01*
X150922407Y-91717354D01*
X150900000Y-91715147D01*
X150600000Y-91715147D01*
X150577593Y-91717354D01*
X150556048Y-91723890D01*
X150536191Y-91734503D01*
X150518787Y-91748787D01*
X150504503Y-91766191D01*
X150500000Y-91774616D01*
X150495497Y-91766191D01*
X150481213Y-91748787D01*
X150463809Y-91734503D01*
X150443952Y-91723890D01*
X150422407Y-91717354D01*
X150400000Y-91715147D01*
X150100000Y-91715147D01*
X150077593Y-91717354D01*
X150056048Y-91723890D01*
X150036191Y-91734503D01*
X150018787Y-91748787D01*
X150004503Y-91766191D01*
X150000000Y-91774616D01*
X149995497Y-91766191D01*
X149981213Y-91748787D01*
X149963809Y-91734503D01*
X149943952Y-91723890D01*
X149922407Y-91717354D01*
X149900000Y-91715147D01*
X149600000Y-91715147D01*
X149577593Y-91717354D01*
X149556048Y-91723890D01*
X149536191Y-91734503D01*
X149518787Y-91748787D01*
X149504503Y-91766191D01*
X149500000Y-91774616D01*
X149495497Y-91766191D01*
X149481213Y-91748787D01*
X149463809Y-91734503D01*
X149443952Y-91723890D01*
X149422407Y-91717354D01*
X149400000Y-91715147D01*
X149100000Y-91715147D01*
X149077593Y-91717354D01*
X149056048Y-91723890D01*
X149036191Y-91734503D01*
X149018787Y-91748787D01*
X149004503Y-91766191D01*
X149000000Y-91774616D01*
X148995497Y-91766191D01*
X148981213Y-91748787D01*
X148963809Y-91734503D01*
X148943952Y-91723890D01*
X148922407Y-91717354D01*
X148900000Y-91715147D01*
X148600000Y-91715147D01*
X148577593Y-91717354D01*
X148556048Y-91723890D01*
X148536191Y-91734503D01*
X148518787Y-91748787D01*
X148504503Y-91766191D01*
X148500000Y-91774616D01*
X148495497Y-91766191D01*
X148481213Y-91748787D01*
X148463809Y-91734503D01*
X148443952Y-91723890D01*
X148422407Y-91717354D01*
X148400000Y-91715147D01*
X148100000Y-91715147D01*
X148077593Y-91717354D01*
X148056048Y-91723890D01*
X148036191Y-91734503D01*
X148018787Y-91748787D01*
X148004503Y-91766191D01*
X147993890Y-91786048D01*
X147987354Y-91807593D01*
X147985147Y-91830000D01*
X146639300Y-91830000D01*
X146639300Y-91639300D01*
X153360700Y-91639300D01*
X153360701Y-105860700D01*
G37*
%TD.AperFunction*%
D16*
X152801100Y-96289025D02*
X152774777Y-96262702D01*
X152801100Y-96262702D01*
X152801100Y-96289025D01*
%TA.AperFunction,Conductor*%
D17*
G36*
X152801100Y-96289025D02*
G01*
X152774777Y-96262702D01*
X152801100Y-96262702D01*
X152801100Y-96289025D01*
G37*
%TD.AperFunction*%
D16*
X152801100Y-96237298D02*
X152774777Y-96237298D01*
X152801100Y-96210975D01*
X152801100Y-96237298D01*
%TA.AperFunction,Conductor*%
D17*
G36*
X152801100Y-96237298D02*
G01*
X152774777Y-96237298D01*
X152801100Y-96210975D01*
X152801100Y-96237298D01*
G37*
%TD.AperFunction*%
D16*
X152801100Y-96050926D02*
X152799691Y-96046280D01*
X152786718Y-96022011D01*
X152769261Y-96000739D01*
X152748341Y-95983571D01*
X152751213Y-95981213D01*
X152765497Y-95963809D01*
X152776110Y-95943952D01*
X152782646Y-95922407D01*
X152784853Y-95900000D01*
X152784853Y-95600000D01*
X152782646Y-95577593D01*
X152776110Y-95556048D01*
X152765497Y-95536191D01*
X152751213Y-95518787D01*
X152748341Y-95516429D01*
X152769261Y-95499261D01*
X152786718Y-95477989D01*
X152799691Y-95453720D01*
X152801101Y-95449073D01*
X152801100Y-96050926D01*
%TA.AperFunction,Conductor*%
D17*
G36*
X152801100Y-96050926D02*
G01*
X152799691Y-96046280D01*
X152786718Y-96022011D01*
X152769261Y-96000739D01*
X152748341Y-95983571D01*
X152751213Y-95981213D01*
X152765497Y-95963809D01*
X152776110Y-95943952D01*
X152782646Y-95922407D01*
X152784853Y-95900000D01*
X152784853Y-95600000D01*
X152782646Y-95577593D01*
X152776110Y-95556048D01*
X152765497Y-95536191D01*
X152751213Y-95518787D01*
X152748341Y-95516429D01*
X152769261Y-95499261D01*
X152786718Y-95477989D01*
X152799691Y-95453720D01*
X152801101Y-95449073D01*
X152801100Y-96050926D01*
G37*
%TD.AperFunction*%
D16*
X152801101Y-95050927D02*
X152799691Y-95046280D01*
X152786718Y-95022011D01*
X152769261Y-95000739D01*
X152768361Y-95000000D01*
X152769261Y-94999261D01*
X152786718Y-94977989D01*
X152799691Y-94953720D01*
X152801101Y-94949072D01*
X152801101Y-95050927D01*
%TA.AperFunction,Conductor*%
D17*
G36*
X152801101Y-95050927D02*
G01*
X152799691Y-95046280D01*
X152786718Y-95022011D01*
X152769261Y-95000739D01*
X152768361Y-95000000D01*
X152769261Y-94999261D01*
X152786718Y-94977989D01*
X152799691Y-94953720D01*
X152801101Y-94949072D01*
X152801101Y-95050927D01*
G37*
%TD.AperFunction*%
D16*
X152801101Y-94789026D02*
X152774777Y-94762702D01*
X152801101Y-94762702D01*
X152801101Y-94789026D01*
%TA.AperFunction,Conductor*%
D17*
G36*
X152801101Y-94789026D02*
G01*
X152774777Y-94762702D01*
X152801101Y-94762702D01*
X152801101Y-94789026D01*
G37*
%TD.AperFunction*%
D16*
X152801101Y-94737298D02*
X152774777Y-94737298D01*
X152801101Y-94710974D01*
X152801101Y-94737298D01*
%TA.AperFunction,Conductor*%
D17*
G36*
X152801101Y-94737298D02*
G01*
X152774777Y-94737298D01*
X152801101Y-94710974D01*
X152801101Y-94737298D01*
G37*
%TD.AperFunction*%
%TD*%
M02*
